<svg width="57" height="60" viewBox="0 0 57 60" fill="none" xmlns="http://www.w3.org/2000/svg">
<path d="M8.59593 0C5.209 0.557342 0.0214362 3.1511 0.0214362 6.53802V7.09539V44.6089C2.7224 40.8147 5.76635 40.0858 8.59593 39.9357V0ZM10.7396 10.7181V40.7288C10.7396 41.3076 10.268 41.7792 9.68918 41.8007C9.51769 41.8007 9.36763 41.7792 9.19614 41.7792C4.11576 41.7792 0 45.8735 0 50.9111C0 52.6045 0.493033 54.1694 1.30761 55.5199C1.39336 55.67 1.4791 55.8414 1.56484 55.9914C2.89389 57.9421 4.95177 59.357 7.33119 59.8286C7.90997 59.9358 8.51018 60 9.1104 60H9.15327H9.19614H9.23902H9.66774H55.6838C56.284 60 56.7556 59.5284 56.7556 58.9282V11.7685C56.7556 11.1683 56.284 10.6967 55.6838 10.6967L10.7396 10.7181ZM36.463 21.4362C36.7631 21.4362 37.0632 21.5649 37.2562 21.8007L46.9025 32.5189C47.0954 32.7332 47.1811 33.0119 47.1811 33.2905V48.2315C47.1811 48.8317 46.7095 49.3033 46.1093 49.3033H39.6785H33.2476C32.6474 49.3033 32.1758 48.8317 32.1758 48.2315V40.7288H27.8885V48.2315C27.8885 48.8317 27.4169 49.3033 26.8167 49.3033H20.3859C19.7856 49.3033 19.314 48.8317 19.314 48.2315V33.2262C19.314 33.1833 19.314 33.1405 19.3355 33.0762C19.3355 33.0334 19.3355 33.0118 19.3569 32.9689C19.3569 32.9261 19.3784 32.9045 19.3784 32.8617C19.3998 32.8188 19.3998 32.7975 19.4212 32.7546C19.4427 32.7118 19.4427 32.6902 19.4641 32.6688C19.4641 32.6474 19.4855 32.6473 19.4855 32.6259C19.507 32.6045 19.507 32.5832 19.5284 32.5618C19.5713 32.5189 19.5927 32.4759 19.6356 32.433L29.1747 21.8437C29.1961 21.8222 29.2176 21.8007 29.239 21.7793L29.2605 21.7578L29.2819 21.7364C29.4748 21.5434 29.7106 21.4362 29.9679 21.4148C30.0536 21.4148 30.1393 21.4148 30.2251 21.4362H36.463ZM35.9914 23.5799L32.4545 23.6013L40.1715 32.1758H43.7299L35.9914 23.5799ZM30.0322 24.1158L22.7867 32.1544H37.2562L30.0322 24.1158ZM21.4577 34.298V47.1597H25.7449V39.657C25.7449 39.0568 26.2165 38.5852 26.8167 38.5852H33.2476C33.8478 38.5852 34.3194 39.0568 34.3194 39.657V47.1597H38.6067V34.298H21.4577ZM40.7503 34.298V47.1597H45.0375V34.298H40.7503Z" fill="#00A9D2"/>
</svg>
