<svg width="60" height="60" viewBox="0 0 60 60" fill="none" xmlns="http://www.w3.org/2000/svg">
<path d="M17.625 12.946V2.63349C17.625 1.88349 17.3438 1.22724 16.875 0.758488C16.4063 0.289738 15.75 0.00848828 15 0.00848828H2.8125C1.21875 -0.0852617 0 1.13349 0 2.63349L0.09375 41.1647C0.75 40.696 1.59375 40.4147 2.53125 40.321L17.625 12.946Z" fill="#DF4525"/>
<path d="M5.4375 40.3218L34.9687 21.9468L39.9375 12.8531C40.6875 11.5406 40.2187 9.9468 38.9062 9.1968L28.2187 3.29055C26.9062 2.54055 25.3125 3.0093 24.5625 4.3218L19.5 13.5093L4.78125 40.3218H5.4375Z" fill="#DF4525"/>
<path d="M42.4688 40.3218L53.8125 33.2905C55.0313 32.5405 55.4063 30.853 54.6563 29.6343L48.1875 19.228C47.4375 18.0093 45.75 17.5405 44.5313 18.3843L9.1875 40.3218H42.4688Z" fill="#DF4525"/>
<path d="M25.6875 47.4468H18.2812V54.853H25.6875V47.4468Z" fill="#DF4525"/>
<path d="M57.3752 42.2905H2.81269C1.31269 42.2905 0.187688 43.5093 0.187688 44.9155V57.1968C0.0939375 58.6968 1.31269 59.9155 2.81269 59.9155H57.3752C58.8752 59.9155 60.0002 58.6968 60.0002 57.2905V45.0093C60.0002 43.5093 58.7814 42.2905 57.3752 42.2905ZM9.37519 55.1343C7.21894 55.1343 5.43769 53.353 5.43769 51.1968C5.43769 49.0405 7.21894 47.2593 9.37519 47.2593C11.5314 47.2593 13.3127 49.0405 13.3127 51.1968C13.3127 53.353 11.5314 55.1343 9.37519 55.1343ZM27.6564 55.7905C27.6564 56.353 27.1877 56.728 26.7189 56.728H17.3439C16.7814 56.728 16.4064 56.2593 16.4064 55.7905V46.4155C16.4064 45.853 16.8752 45.478 17.3439 45.478H26.7189C27.2814 45.478 27.6564 45.9468 27.6564 46.4155V55.7905ZM42.0002 55.7905C42.0002 56.353 41.5314 56.728 41.0627 56.728H31.6877C31.1252 56.728 30.7502 56.2593 30.7502 55.7905V46.4155C30.7502 45.853 31.2189 45.478 31.6877 45.478H41.0627C41.6252 45.478 42.0002 45.9468 42.0002 46.4155V55.7905ZM56.4377 55.7905C56.4377 56.353 55.9689 56.728 55.5002 56.728H46.1252C45.5627 56.728 45.1877 56.2593 45.1877 55.7905V46.4155C45.1877 45.853 45.6564 45.478 46.1252 45.478H55.5002C56.0627 45.478 56.4377 45.9468 56.4377 46.4155V55.7905Z" fill="#DF4525"/>
<path d="M40.0313 47.4468H32.625V54.853H40.0313V47.4468Z" fill="#DF4525"/>
<path d="M54.4688 47.4468H47.0625V54.853H54.4688V47.4468Z" fill="#DF4525"/>
<path d="M9.375 53.1655C10.4623 53.1655 11.3438 52.2421 11.3438 51.103C11.3438 49.9639 10.4623 49.0405 9.375 49.0405C8.28769 49.0405 7.40625 49.9639 7.40625 51.103C7.40625 52.2421 8.28769 53.1655 9.375 53.1655Z" fill="#DF4525"/>
</svg>
