<svg width="60" height="60" viewBox="0 0 60 60" fill="none" xmlns="http://www.w3.org/2000/svg">
<path fill-rule="evenodd" clip-rule="evenodd" d="M9.95798 11.5336L11.3445 12.9202L5.67227 18.5924L10.084 23.0042L15.7563 17.2689L17.0798 18.5924L11.3445 24.2647L15.7563 28.6134L28.6765 15.6933L12.9202 0L0 12.9202L4.28572 17.2059L9.95798 11.5336ZM44.3067 31.3235L31.3865 44.2436L35.7353 48.6554L41.4075 42.9201L42.7311 44.2436L36.9958 49.9159L41.4705 54.3277L47.0798 48.6554L48.4664 50.042L42.7941 55.7142L47.0798 59.9999L60 47.0798L44.3067 31.3235ZM57.8569 14.7479C58.6553 13.9916 59.0544 13.0568 59.0544 11.9433C59.0544 10.8299 58.6763 9.87399 57.92 9.07566L50.7981 2.01685C50.0418 1.21851 49.1069 0.819357 47.9935 0.819357C46.8801 0.819357 45.9242 1.21851 45.1259 2.01685L40.7771 6.42861L53.5082 19.1597L57.8569 14.7479ZM4.60088 50.042L9.895 55.3362L20.5463 51.5546L8.3824 39.3908L4.60088 50.042ZM39.3906 7.689L9.32755 37.752L22.1847 50.5462L52.2477 20.5461L39.3906 7.689ZM15.1892 37.6891L39.3278 13.5504L40.7774 14.937L16.5757 39.0757L15.1892 37.6891ZM18.0252 40.5253L42.1639 16.3236L43.5504 17.7732L19.4118 41.9119L18.0252 40.5253ZM20.7986 43.2982L45.0002 19.1595L46.3868 20.5461L22.2481 44.7478L20.7986 43.2982ZM1.70177 58.2353L7.87824 56.0294L3.90765 52.0588L1.70177 58.2353Z" fill="#2A5F94"/>
</svg>
