<svg width="110" height="114" viewBox="0 0 110 114" fill="none" xmlns="http://www.w3.org/2000/svg">
<g clip-path="url(#clip0)">
<path d="M110 0H0V113.204H110V0Z" fill="white"/>
<path d="M108.24 1.78979H1.76221V111.412H108.24V1.78979Z" fill="#001641"/>
<path fill-rule="evenodd" clip-rule="evenodd" d="M21.516 61.0072C21.833 60.9796 22.1525 60.9796 22.442 60.9796C25.9889 60.9796 27.6313 62.4018 27.6313 65.5837C27.6313 68.1791 26.0688 69.8254 23.4754 69.8254C21.5959 69.8254 21.516 69.0727 21.516 67.0085V61.0072ZM15.7452 70.7719C16.8834 70.7165 17.8094 70.6889 18.5507 70.6889C20.6424 70.6889 22.4695 70.855 24.0295 70.855C28.6097 70.855 31.1756 68.5391 31.1756 65.2187C31.1756 62.3465 29.1913 60.5869 25.4572 60.4484V60.1967C28.5548 59.4717 30.0899 57.9638 30.0899 55.6504C30.0899 53.055 27.9458 51.2703 24.2142 51.2703C23.1808 51.2703 21.6208 51.3256 19.5017 51.3256C19.1048 51.3256 18.6805 51.3256 18.2038 51.3256C17.4899 51.3256 16.6687 51.3256 15.7427 51.2703V52.1639C15.8225 52.1639 15.875 52.1639 15.9548 52.1639C18.0191 52.1639 18.0715 52.5818 18.0715 54.3691V67.872C18.0715 69.546 17.8069 69.8808 15.7427 69.8808V70.7719H15.7452ZM21.5434 59.9198V52.4156C21.8355 52.388 22.125 52.388 22.4171 52.388C25.2501 52.388 26.6254 53.5887 26.6254 56.1539C26.6254 58.7492 25.2501 59.9475 22.4171 59.9475C22.125 59.9475 21.833 59.9475 21.5434 59.9198Z" fill="white"/>
<path fill-rule="evenodd" clip-rule="evenodd" d="M31.0958 70.8475C31.7148 70.772 32.4286 70.772 33.2124 70.772C33.8539 70.772 34.5453 70.772 35.2816 70.772C35.948 70.772 36.8516 70.772 38.0422 70.772C39.5174 70.772 41.3969 70.772 43.7057 70.8475L44.5868 66.8601L43.9203 66.6587C43.2539 69.3925 41.9934 69.6921 38.9233 69.6921C36.6619 69.6921 36.2575 69.3674 36.2575 67.3862V62.2207H38.2793C40.3261 62.2207 40.8253 62.4472 40.8727 64.5517L41.5142 64.4007C41.4668 63.2729 41.4418 62.3189 41.4418 61.5662C41.4418 60.7632 41.4892 59.862 41.5366 58.782H40.8228C40.8228 58.8324 40.8228 58.8575 40.8228 58.8827C40.8228 60.7632 40.2038 60.9645 38.2294 60.9645H36.255V54.3188H38.8734C41.3469 54.3188 42.2031 54.6687 42.4177 57.2037L43.0367 56.9268V53.2917C42.4652 53.2917 40.4184 53.3421 36.9215 53.3421C34.3531 53.3421 32.4012 53.2917 31.0933 53.2917V54.0444C31.1656 54.0444 31.2131 54.0444 31.283 54.0444C33.1375 54.0444 33.1874 54.4195 33.1874 56.0256V68.1616C33.1874 69.6669 32.9503 69.9665 31.0933 69.9665V70.8475H31.0958Z" fill="white"/>
<path fill-rule="evenodd" clip-rule="evenodd" d="M43.7676 70.772C44.3392 70.7217 44.8608 70.6965 45.2902 70.6965C46.6705 70.6965 47.9559 70.7217 49.144 70.772V69.9942C47.7637 69.9942 47.1697 69.7676 47.1697 69.0653C47.1697 68.8387 47.2895 68.4133 47.4792 67.8117L48.5025 64.728H53.8091L54.9024 68.0886C55.0696 68.6399 55.1395 69.0175 55.1395 69.2163C55.1395 69.8431 54.7102 69.969 53.7592 69.969C53.6643 69.969 53.5445 69.969 53.4272 69.969V70.772C54.9498 70.7217 56.2103 70.6965 57.2112 70.6965C58.1871 70.6965 59.1856 70.7217 60.2339 70.772V70.0194C59.0682 69.9942 58.6639 69.5688 58.307 68.4385L53.1452 52.6675C52.2641 53.1433 51.4329 53.5209 50.6941 53.7952L46.3634 67.3359C45.7694 69.1912 45.3401 69.9438 43.7701 70.0194V70.772H43.7676ZM53.3573 63.2478H48.8595L51.1433 56.227L53.3573 63.2478Z" fill="white"/>
<path fill-rule="evenodd" clip-rule="evenodd" d="M73.1663 65.8555C72.4299 68.5894 70.5729 70.1174 68.1692 70.1174C66.4794 70.1174 64.862 69.2136 63.6489 67.5346C62.5057 65.9537 61.9366 64.0229 61.9366 61.7171C61.9366 56.8536 64.2929 53.8681 67.957 53.8681C70.503 53.8681 72.4549 55.4741 73.1663 58.3061L73.7129 58.2809L73.5931 54.0695C72.1903 54.0191 70.3582 52.8914 67.5502 52.8914C62.2911 52.8914 58.6519 56.6271 58.6519 62.0695C58.6519 67.4113 62.2911 71.1218 67.6226 71.1218C69.3349 71.1218 71.1669 70.7467 73.1663 70.1199L73.8077 65.9814L73.1663 65.8555Z" fill="white"/>
<path fill-rule="evenodd" clip-rule="evenodd" d="M74.5161 70.7718C75.8016 70.7215 77.0146 70.6711 78.0854 70.6711C79.3459 70.6711 80.6064 70.6963 81.8919 70.7718V69.994C81.8445 69.994 81.797 69.994 81.7496 69.994C79.7977 69.994 79.7029 69.493 79.7029 67.7133V62.296H88.0296V68.1639C88.0296 69.6693 87.7925 69.9688 85.9354 69.9688V70.7718C87.2683 70.6963 88.4564 70.6711 89.5048 70.6711C90.623 70.6711 91.9084 70.7215 93.3362 70.7718V69.994C93.2887 69.994 93.2413 69.994 93.1939 69.994C91.242 69.994 91.1247 69.493 91.1247 67.7133V56.1034C91.1247 54.4495 91.4092 54.0468 93.0292 54.0468C93.124 54.0468 93.2189 54.0468 93.3387 54.0468V53.2437C91.8635 53.2941 90.5781 53.2941 89.5322 53.2941C88.1519 53.2941 86.9388 53.2941 85.9404 53.2437V54.0468C86.0128 54.0468 86.0602 54.0468 86.1301 54.0468C87.9847 54.0468 88.0346 54.4218 88.0346 56.0279V60.8914H79.7079V56.1009C79.7079 54.447 79.9699 54.0442 81.5874 54.0442C81.6822 54.0442 81.7771 54.0442 81.8969 54.0442V53.2412C80.5889 53.2916 79.3035 53.2916 78.0904 53.2916C76.7101 53.2916 75.522 53.2916 74.5211 53.2412V54.0442C74.5935 54.0442 74.6409 54.0442 74.7108 54.0442C76.5654 54.0442 76.6153 54.4193 76.6153 56.0254V68.1614C76.6153 69.6667 76.3781 69.9663 74.5211 69.9663V70.7718H74.5161Z" fill="white"/>
<path fill-rule="evenodd" clip-rule="evenodd" d="M9.61963 93.161C10.8627 93.078 12.213 93.0503 13.5908 93.0503C15.021 93.0503 16.4238 93.078 17.8266 93.161V92.2951C15.5776 92.2674 15.3655 91.9049 15.3655 89.9791V84.2598H17.2974C18.7002 87.0767 20.4199 90.0345 22.4867 93.1585C23.4651 93.1031 24.3137 93.0754 25.0551 93.0754C25.9561 93.0754 26.7748 93.1031 27.4912 93.1585V92.3228C27.4113 92.3505 27.3314 92.3505 27.2541 92.3505C25.7465 92.3505 23.8395 89.3095 20.5572 83.5348C22.9659 82.6688 24.2364 80.9671 24.2364 78.5958C24.2364 75.5826 21.8801 73.6292 17.5121 73.6292C16.3464 73.6292 14.9711 73.7122 13.3562 73.7122C12.3777 73.7122 11.1322 73.7122 9.62462 73.6568V74.5505C9.70449 74.5505 9.75691 74.5505 9.83678 74.5505C11.901 74.5505 11.9534 74.9684 11.9534 76.7557V90.2586C11.9534 91.9326 11.6888 92.2674 9.62462 92.2674V93.161H9.61963ZM15.3655 83.2277V74.7192C15.6825 74.6915 16.002 74.6915 16.2915 74.6915C19.2568 74.6915 20.7394 76.1137 20.7394 79.0439C20.7394 81.8885 19.2843 83.2554 16.2666 83.2554C15.972 83.2554 15.6825 83.2554 15.3655 83.2277Z" fill="white"/>
<path fill-rule="evenodd" clip-rule="evenodd" d="M26.3482 93.234C26.9672 93.1585 27.6811 93.1585 28.4648 93.1585C29.1063 93.1585 29.7977 93.1585 30.534 93.1585C31.2005 93.1585 32.104 93.1585 33.2946 93.1585C34.7698 93.1585 36.6493 93.1585 38.9581 93.234L39.8392 89.2466L39.1728 89.0452C38.5064 91.779 37.2459 92.0786 34.1757 92.0786C31.9143 92.0786 31.51 91.7538 31.51 89.7727V84.6072H33.5318C35.5785 84.6072 36.0777 84.8337 36.1251 86.9382L36.7666 86.7872C36.7192 85.6594 36.6942 84.7053 36.6942 83.9526C36.6942 83.1496 36.7417 82.2484 36.7891 81.1685H36.0752C36.0752 81.2188 36.0752 81.244 36.0752 81.2692C36.0752 83.1496 35.4562 83.351 33.4819 83.351H31.5075V76.7053H34.1258C36.5994 76.7053 37.4555 77.0552 37.6702 79.5901L38.2892 79.3132V75.6782C37.7176 75.6782 35.6709 75.7286 32.1739 75.7286C29.6055 75.7286 27.6536 75.6782 26.3457 75.6782V76.4309C26.4181 76.4309 26.4655 76.4309 26.5354 76.4309C28.3899 76.4309 28.4399 76.806 28.4399 78.412V90.548C28.4399 92.0534 28.2027 92.3529 26.3457 92.3529V93.234H26.3482Z" fill="white"/>
<path fill-rule="evenodd" clip-rule="evenodd" d="M39.1401 93.1609C39.7117 93.1106 40.2334 93.0854 40.6627 93.0854C42.043 93.0854 43.3285 93.1106 44.5166 93.1609V92.3831C43.1363 92.3831 42.5422 92.1565 42.5422 91.4542C42.5422 91.2276 42.662 90.8022 42.8517 90.2006L43.8751 87.1169H49.1817L50.2749 90.4775C50.4421 91.0288 50.512 91.4064 50.512 91.6052C50.512 92.2321 50.0827 92.3579 49.1317 92.3579C49.0369 92.3579 48.9171 92.3579 48.7998 92.3579V93.1609C50.3223 93.1106 51.5828 93.0854 52.5837 93.0854C53.5597 93.0854 54.5581 93.1106 55.6064 93.1609V92.4083C54.4408 92.3831 54.0364 91.9577 53.6795 90.8274L48.5177 75.0564C47.6366 75.5322 46.8054 75.9098 46.0666 76.1842L41.736 89.7248C41.142 91.5801 40.7126 92.3327 39.1426 92.4083V93.1609H39.1401ZM48.7274 85.6367H44.2295L46.5134 78.6159L48.7274 85.6367Z" fill="white"/>
<path fill-rule="evenodd" clip-rule="evenodd" d="M55.6387 93.2591C55.8284 93.1584 56.9242 93.1584 58.9684 93.1584C59.7772 93.1584 60.7281 93.1584 61.8464 93.1584C63.2491 93.1584 64.4397 93.1332 65.4631 93.1332C66.6537 93.1332 67.5798 93.1584 68.2462 93.2591L69.1273 89.2465L68.4609 89.0451C67.8194 91.653 66.6537 92.0785 63.7983 92.0785C61.3472 92.0785 60.7756 91.9526 60.7756 89.6971V78.4145C60.7756 76.7858 60.9902 76.4585 62.9172 76.4585V75.6807C61.8239 75.7058 60.0143 75.731 57.5407 75.731C57.1114 75.731 56.4949 75.6807 55.6362 75.6807V76.4333C55.7086 76.4333 55.756 76.4333 55.8259 76.4333C57.6805 76.4333 57.7304 76.8084 57.7304 78.4145V90.5505C57.7304 92.0558 57.4933 92.3554 55.6362 92.3554V93.2591H55.6387Z" fill="white"/>
<path fill-rule="evenodd" clip-rule="evenodd" d="M71.636 93.161C73.0163 93.0854 74.2543 93.0351 75.395 93.0351C76.0839 93.0351 77.3694 93.0854 79.2489 93.161V92.3831C77.0374 92.3831 77.0124 91.9577 77.0124 89.9514V76.8613H80.3671C82.0095 76.8613 82.4613 77.2867 82.5087 79.3182L83.2225 79.0665C83.27 78.0394 83.3648 76.7102 83.5321 75.1042L83.0079 74.928C82.7932 75.6303 82.3664 75.6807 81.5577 75.6807C81.4379 75.6807 81.343 75.6807 81.2257 75.6807C81.0585 75.6807 80.8688 75.6807 80.6791 75.6807H70.8996C70.4703 75.6807 70.1134 75.6807 69.7814 75.6807C69.709 75.6807 69.6616 75.6807 69.5917 75.6807C68.7356 75.6807 68.2588 75.6555 68.1415 75.0035H67.5699C67.4751 76.5844 67.3328 77.9865 67.1406 79.215L67.8071 79.2653C68.2114 77.1583 68.9003 76.8588 70.7574 76.8588H73.9223V90.4246C73.9223 92.0307 73.7801 92.3554 71.8531 92.3554C71.7807 92.3554 71.7109 92.3554 71.6385 92.3554V93.161H71.636Z" fill="white"/>
<path fill-rule="evenodd" clip-rule="evenodd" d="M87.9599 93.1611C89.9817 93.0856 91.2197 93.0856 91.7189 93.0856C92.9794 93.0856 94.2649 93.1107 95.5728 93.1611V92.3832C93.3613 92.3832 93.3364 91.9578 93.3364 89.9515V83.983L97.1203 78.7419C98.1437 77.3121 99.0722 76.5342 100.38 76.4612V75.6833C99.524 75.6833 98.6429 75.7337 97.7618 75.7337C96.8807 75.7337 95.8574 75.7085 94.6218 75.6833V76.436C95.8349 76.4864 96.4289 76.7129 96.4289 77.1635C96.4289 77.5638 96.1444 77.9917 95.7151 78.5934L92.5277 82.9559L89.2679 77.9666C89.0058 77.5915 88.8385 77.2894 88.8385 77.0125C88.8385 76.6122 89.1955 76.4109 89.9568 76.4109C90.0766 76.4109 90.2188 76.436 90.3861 76.436V75.6833C89.4825 75.6833 88.4591 75.7337 87.316 75.7337C85.2692 75.7337 83.819 75.6833 82.9854 75.6833V76.436C84.6752 76.436 85.0795 77.1887 85.8158 78.2913L90.2413 84.8615V90.5532C90.2413 92.0585 90.0266 92.3581 88.1946 92.3581C88.1222 92.3581 88.0273 92.3581 87.9574 92.3581V93.1611H87.9599Z" fill="white"/>
<path fill-rule="evenodd" clip-rule="evenodd" d="M45.0156 43.1466C45.0131 43.1416 44.7461 42.9402 44.7436 42.9351C44.1245 42.1472 42.6694 41.1932 40.6526 40.8508C40.5902 40.8407 40.5278 40.8332 40.4629 40.8231C39.6192 40.7325 38.8904 40.7728 38.0592 40.9515C37.1406 41.1504 36.3844 41.4046 35.5282 41.7948L35.3086 41.8804C35.2886 41.8879 34.9367 41.9912 34.9267 41.9937C34.5373 41.757 34.1928 41.5808 33.7735 41.4071C33.6337 41.3442 33.494 41.2888 33.3567 41.241C30.8107 40.1711 27.8529 42.6683 26.52 43.0937C26.3179 43.3178 26.4502 43.4386 27.6133 43.1088C28.0776 43.0107 30.4363 42.1019 30.5661 42.0767C30.8357 42.0214 30.9205 42.0063 30.9205 42.0063C31.1826 41.9534 31.4073 41.9181 31.6718 41.8854C32.2684 41.7973 32.7926 41.8351 33.3716 42.0088C33.7161 42.117 33.781 42.1447 34.1155 42.2983C34.0256 42.3536 33.9432 42.3939 33.8434 42.4292C33.4141 42.5727 32.5779 42.6532 32.0537 42.6985C31.7692 42.7262 31.5271 42.7338 31.2425 42.7262C31.1177 42.7212 30.646 42.6809 30.4413 42.5903L30.3165 42.5248C30.2791 42.5047 30.2466 42.4946 30.2067 42.4871C30.1792 42.482 30.1518 42.4845 30.1243 42.4946C30.0719 42.5148 30.0444 42.5752 30.0644 42.628C30.0644 42.6306 30.0644 42.6306 30.0669 42.6331C30.1468 42.8143 30.2641 42.9477 30.4313 43.0509C30.616 43.1793 30.7858 43.2674 30.9979 43.343C32.1536 43.7508 33.6737 43.4386 34.8144 42.988C34.8917 42.9578 35.2062 42.842 35.3235 42.8244L35.3435 42.8219C35.5008 42.8848 35.633 42.9452 35.7828 43.0233C36.4068 43.348 36.9934 43.5141 37.6948 43.5645C38.3737 43.5997 38.9553 43.5167 39.5992 43.2951C39.9237 43.1869 40.1958 43.0887 40.5153 42.9628C40.6451 42.91 40.7898 42.8596 40.9396 42.8118C41.1867 42.7363 41.4413 42.6985 41.6909 42.6885C43.0762 42.6356 45.2053 43.6853 45.5697 43.932C45.6022 43.9471 45.6272 43.9572 45.6346 43.9622C46.1788 44.224 44.9158 43.0308 45.0156 43.1466ZM43.4656 42.6154C42.2575 42.0994 41.0494 42.0314 39.6342 42.331C39.0626 42.4342 38.5484 42.5273 37.9569 42.6406C37.7023 42.691 37.4876 42.7262 37.2305 42.7589C36.9385 42.7791 36.4218 42.691 36.1847 42.5752C37.213 42.3562 38.0792 42.1523 39.095 41.8879C39.2398 41.8477 39.3646 41.82 39.5094 41.7898C39.9986 41.7142 40.4329 41.6891 40.9072 41.7117C41.9031 41.7596 42.6918 41.9181 43.4681 42.5651C43.5554 42.6356 43.5979 42.6658 43.5979 42.6658C43.5979 42.6658 43.5455 42.6457 43.4656 42.6154Z" fill="#FFD23C"/>
<path fill-rule="evenodd" clip-rule="evenodd" d="M64.9936 43.1466C64.9961 43.1416 65.2631 42.9402 65.2656 42.9351C65.8846 42.1472 67.3398 41.1932 69.3566 40.8508C69.419 40.8407 69.4814 40.8332 69.5463 40.8231C70.39 40.7325 71.1188 40.7728 71.95 40.9515C72.8685 41.1504 73.6248 41.4046 74.481 41.7948L74.7006 41.8804C74.7206 41.8879 75.0725 41.9912 75.0825 41.9937C75.4719 41.757 75.8163 41.5808 76.2357 41.4071C76.3754 41.3442 76.5127 41.2888 76.6525 41.241C79.1985 40.1711 82.1562 42.6683 83.4891 43.0937C83.6913 43.3178 83.559 43.4386 82.3959 43.1088C81.9316 43.0107 79.5729 42.1019 79.4431 42.0767C79.1735 42.0214 79.0886 42.0063 79.0886 42.0063C78.8265 41.9534 78.6019 41.9182 78.3373 41.8854C77.7408 41.7973 77.2166 41.8351 76.6375 42.0088C76.2931 42.117 76.2282 42.1447 75.8937 42.2983C75.9836 42.3536 76.0659 42.3939 76.1658 42.4292C76.5951 42.5727 77.4313 42.6532 77.9554 42.6985C78.24 42.7262 78.4821 42.7338 78.7666 42.7262C78.8914 42.7212 79.3632 42.6809 79.5679 42.5903L79.6927 42.5248C79.7301 42.5047 79.7626 42.4946 79.8025 42.4871C79.8324 42.482 79.8574 42.4845 79.8849 42.4946C79.9373 42.5148 79.9647 42.5752 79.9448 42.628C79.9448 42.6306 79.9448 42.6306 79.9423 42.6331C79.8624 42.8143 79.7451 42.9477 79.5779 43.0509C79.3931 43.1793 79.2234 43.2674 79.0113 43.343C77.8556 43.7508 76.3355 43.4386 75.1948 42.988C75.1175 42.9578 74.803 42.842 74.6856 42.8244L74.6657 42.8219C74.5084 42.8848 74.3761 42.9452 74.2264 43.0233C73.6024 43.348 73.0158 43.5141 72.3144 43.5645C71.6355 43.5997 71.0539 43.5167 70.4099 43.2951C70.0855 43.1869 69.8134 43.0887 69.4939 42.9628C69.3641 42.91 69.2193 42.8596 69.0696 42.8118C68.8225 42.7363 68.5679 42.6985 68.3183 42.6885C66.933 42.6356 64.8039 43.6853 64.4394 43.932C64.407 43.9471 64.382 43.9572 64.3745 43.9622C63.8329 44.224 65.0934 43.0308 64.9936 43.1466ZM66.5436 42.6154C67.7517 42.0994 68.9598 42.0314 70.375 42.331C70.9466 42.4342 71.4608 42.5273 72.0523 42.6406C72.3069 42.691 72.5216 42.7262 72.7787 42.7589C73.0707 42.7791 73.5874 42.691 73.8245 42.5752C72.7961 42.3562 71.93 42.1523 70.9141 41.8879C70.7694 41.8477 70.6446 41.82 70.4998 41.7898C70.0106 41.7142 69.5763 41.6891 69.102 41.7117C68.1061 41.7596 67.3174 41.9181 66.5411 42.5651C66.4537 42.6356 66.4113 42.6658 66.4113 42.6658C66.4113 42.6658 66.4662 42.6457 66.5436 42.6154Z" fill="#FFD23C"/>
<path fill-rule="evenodd" clip-rule="evenodd" d="M25.4022 102.85L24.5811 103.104C24.9829 104.204 25.6743 104.753 26.6553 104.753C27.1644 104.753 27.6087 104.569 27.9856 104.199C28.3625 103.829 28.5497 103.389 28.5497 102.878C28.5497 102.296 28.3051 101.828 27.8184 101.478C27.731 101.415 27.2793 101.189 26.4606 100.798C25.9713 100.564 25.7292 100.3 25.7292 100C25.7292 99.789 25.8191 99.6128 25.9963 99.4743C26.161 99.346 26.3507 99.283 26.5679 99.283C26.9198 99.283 27.2293 99.4894 27.5014 99.9048L28.2078 99.4366C27.9632 99.1093 27.7435 98.8802 27.5438 98.7468C27.2867 98.5757 26.9822 98.4875 26.6303 98.4875C26.1511 98.4875 25.7442 98.6285 25.4072 98.913C25.0503 99.2151 24.8731 99.6027 24.8731 100.078C24.8731 100.489 25.0179 100.851 25.3124 101.166C25.4721 101.337 25.7692 101.506 26.2085 101.674C26.7152 101.871 27.0446 102.019 27.1944 102.125C27.5014 102.342 27.6562 102.626 27.6562 102.983C27.6562 103.265 27.5513 103.494 27.3392 103.668C27.142 103.829 26.9024 103.907 26.6153 103.907C26.0562 103.907 25.6543 103.555 25.4022 102.85Z" fill="white"/>
<path fill-rule="evenodd" clip-rule="evenodd" d="M38.0249 101.634C38.0249 102.518 38.3244 103.263 38.921 103.867C39.5175 104.471 40.2539 104.773 41.13 104.773C42.0136 104.773 42.7599 104.474 43.3664 103.872C43.9729 103.27 44.2775 102.525 44.2775 101.637C44.2775 100.748 43.9754 100.006 43.3764 99.4039C42.7749 98.8048 42.0335 98.5027 41.1549 98.5027C40.2763 98.5027 39.5325 98.8023 38.931 99.4039C38.3244 100.006 38.0249 100.748 38.0249 101.634ZM41.1474 99.351C41.8014 99.351 42.3405 99.5675 42.7649 99.998C43.1892 100.428 43.4014 100.975 43.4014 101.634C43.4014 102.306 43.1792 102.853 42.7349 103.273C42.3006 103.686 41.7465 103.89 41.0776 103.89C40.466 103.89 39.9493 103.668 39.525 103.22C39.1057 102.782 38.896 102.253 38.896 101.632C38.896 100.975 39.1082 100.428 39.5325 99.998C39.9593 99.5675 40.4985 99.351 41.1474 99.351Z" fill="white"/>
<path fill-rule="evenodd" clip-rule="evenodd" d="M54.7205 98.6261H53.8618V101.909C53.8618 102.578 53.9167 103.074 54.0241 103.399C54.1863 103.882 54.5058 104.247 54.985 104.494C55.302 104.658 55.6465 104.738 56.0159 104.738C56.57 104.738 57.0393 104.592 57.4236 104.298C57.8255 103.993 58.0776 103.573 58.1824 103.034C58.2299 102.797 58.2523 102.394 58.2523 101.828V98.6235H57.3937V101.828C57.3937 102.475 57.3263 102.946 57.1915 103.24C56.9868 103.686 56.5975 103.91 56.0259 103.91C55.654 103.91 55.337 103.766 55.0749 103.482C54.8353 103.22 54.7155 102.671 54.7155 101.831V98.6261H54.7205Z" fill="white"/>
<path fill-rule="evenodd" clip-rule="evenodd" d="M67.7798 98.626V99.4441H69.2V104.62H70.0612V99.4441H71.4889V98.626H67.7798Z" fill="white"/>
<path fill-rule="evenodd" clip-rule="evenodd" d="M81.0264 98.626V104.62H81.885V101.833H84.5632V104.62H85.4194V98.626H84.5632V101.012H81.885V98.626H81.0264Z" fill="white"/>
<path fill-rule="evenodd" clip-rule="evenodd" d="M37.8374 32.1184C39.8392 39.7887 46.7657 45.4451 55.0001 45.4451C63.2345 45.4451 70.161 39.7887 72.1628 32.1184H37.8374Z" fill="#F2D993"/>
<path fill-rule="evenodd" clip-rule="evenodd" d="M72.5996 29.8075C72.6994 29.0347 72.7518 28.2467 72.7518 27.4462C72.7518 17.5607 64.807 9.5481 55.0051 9.5481C45.2032 9.5481 37.2583 17.5607 37.2583 27.4462C37.2583 28.2467 37.3107 29.0347 37.4106 29.8075H72.5996Z" fill="url(#paint0_linear)"/>
<path fill-rule="evenodd" clip-rule="evenodd" d="M38.3239 33.571C38.6284 33.503 38.8655 33.4577 38.9803 33.4426C43.0489 32.7126 51.2283 32.0203 56.46 32.5212C56.5074 32.5263 56.5599 32.5313 56.6123 32.5363C59.7697 32.8384 59.4428 32.929 62.6052 32.7428C66.3692 32.5212 66.6089 32.8057 71.1342 33.2739C71.2515 33.2865 71.4911 33.3671 71.7257 33.4577C72.19 32.1462 72.5045 30.7641 72.6542 29.3318H37.3579C37.5077 30.8019 37.8396 32.2242 38.3239 33.571Z" fill="url(#paint1_linear)"/>
<path fill-rule="evenodd" clip-rule="evenodd" d="M51.7876 34.4343C51.7876 34.4343 51.7127 34.4368 51.4681 34.4443C49.5412 34.5073 50.2026 34.5224 48.2882 34.3008C48.2782 34.3008 48.2782 34.3008 48.2782 34.3008C48.2782 34.3008 48.2732 34.3059 48.2382 34.3411C47.5219 35.0636 44.8886 35.1542 43.985 35.1542C43.8926 35.1542 43.8802 35.1542 43.8802 35.1542C43.8802 35.1542 43.8802 35.1542 43.8877 35.1593C45.238 36.1335 42.5148 36.365 42.1953 36.365C42.0381 36.365 41.9707 36.365 41.9707 36.365C41.9707 36.365 42.0106 36.3776 42.1155 36.4129C42.6646 36.5966 44.1198 36.7854 43.039 37.5129C42.9691 37.5608 42.9467 37.5759 42.9467 37.5759C42.9467 37.5759 42.9791 37.5784 43.1114 37.5859C44.0224 37.6363 46.3313 37.601 46.2689 38.4947C46.2788 38.5148 46.2789 38.5174 46.2789 38.5174C46.2789 38.5174 46.2913 38.5174 46.3862 38.5123C47.1674 38.4771 48.2682 38.3537 49.0395 38.5098C49.3415 38.5702 50.1851 38.7414 50.1851 38.7414L52.4515 38.832L52.8509 38.6533H53.6072L54.1838 38.7439L55.0724 38.7892L56.0059 39.3707C56.0059 39.3707 56.0233 39.3682 56.1057 39.3556C56.7697 39.2524 57.1016 39.3455 57.7531 39.5041C58.0676 39.5797 58.4944 39.6854 58.4944 39.6854L59.3381 39.2826L62.4032 38.8345L63.2918 39.0133L62.6703 37.0875C62.6703 37.0875 62.6877 37.08 62.7701 37.0422C63.6512 36.6319 64.0281 36.5589 64.9916 36.4834C65.2137 36.4657 65.2936 36.4607 65.2936 36.4607C65.2936 36.4607 65.2387 36.4456 65.064 36.3978C64.5972 36.2694 63.2993 35.9648 64.2752 35.3732C64.3676 35.3178 64.405 35.2952 64.405 35.2952C64.405 35.2952 64.3776 35.2952 64.2577 35.2952C63.7361 35.2952 60.7034 35.197 60.943 34.4267C60.9405 34.4015 60.9405 34.399 60.9405 34.399C60.9405 34.399 60.9031 34.4015 60.7883 34.4091C59.2133 34.5224 58.145 34.4443 56.5825 34.2304C56.5051 34.2203 56.4976 34.2178 56.4976 34.2178L54.9426 34.3084L51.7876 34.4343Z" fill="#B6A35B"/>
<path fill-rule="evenodd" clip-rule="evenodd" d="M42.7219 21.1403C42.7069 21.1504 42.7069 21.1504 42.7069 21.1504C42.5721 21.3493 42.0305 21.7218 41.8557 21.9383C41.6586 22.185 42.1004 22.2228 42.2027 22.2152C42.2202 22.2152 42.2426 22.2127 42.2776 22.2102C42.8591 22.1523 43.9025 21.8704 44.4691 22.5702C44.4816 22.5828 44.4816 22.5828 44.4816 22.5828L44.5365 22.6029C44.5365 22.6029 44.539 22.6029 44.5614 22.5878C45.2578 22.1196 46.391 22.3335 47.2022 22.5324C48.0459 22.7388 47.9061 22.7086 48.7323 22.9755C48.7498 22.9805 48.7523 22.983 48.7523 22.983C48.7523 22.983 48.7523 22.983 48.7697 22.9654C49.3114 22.4191 49.7182 22.331 50.3048 22.321C51.4105 22.3008 52.4788 22.4468 53.5372 22.7665C53.5871 22.7816 53.5921 22.7841 53.5921 22.7841C53.5921 22.7841 53.5921 22.7841 53.5996 22.7741C53.9665 21.971 54.865 21.7067 55.9309 21.5934C57.5083 21.4248 58.6365 21.6161 58.9735 21.6513C58.981 21.6513 58.981 21.6513 58.981 21.6513C58.981 21.6513 58.981 21.6488 58.986 21.6237C59.0808 21.1227 59.3404 20.8282 59.6824 20.6469C60.5161 20.2064 62.6077 20.2366 63.5013 20.2744C64.0454 20.297 64.4947 20.3298 64.642 20.3348C64.662 20.3348 64.667 20.3323 64.667 20.3323C64.667 20.3323 64.6695 20.3272 64.6794 20.292C64.9141 19.5167 65.7477 19.2725 66.4716 19.0711C67.3652 18.8219 67.797 18.7111 68.728 18.7539C68.8278 18.7589 68.9052 18.764 68.9551 18.7741C68.9951 18.7816 67.4226 18.3562 67.3826 18.3461C67.5199 18.3662 65.1687 17.3744 65.1687 17.3744C65.1687 17.3744 65.1063 17.3593 64.8791 17.309C64.2376 17.163 63.681 17.0119 63.1618 16.8458C62.0611 16.4808 61.1076 16.0478 59.8197 15.4713C59.8047 15.4638 59.8047 15.4638 59.8047 15.4638C59.8047 15.4638 59.7797 15.4587 59.7398 15.4487C59.7348 15.4462 59.7273 15.4462 59.7223 15.4436C59.7148 15.4411 59.7098 15.4386 59.7024 15.4336C59.6874 15.426 59.6874 15.426 59.6874 15.426C59.6874 15.426 59.6774 15.4235 59.6474 15.416C59.6599 15.4034 59.6649 15.3857 59.6574 15.3681C59.5376 15.1088 59.3829 14.915 59.1582 14.7438C59.0584 14.6708 58.956 14.6154 58.8487 14.5752C58.8837 14.5903 58.8387 14.5701 58.7738 14.5399C57.8353 14.1195 56.3277 13.2511 55.2494 12.5663C55.2095 12.5412 55.182 12.5236 55.1646 12.5135L55.0972 12.4631L55.0048 12.5261L54.7602 12.6922L54.2261 13.032L53.4298 13.5506L52.7085 13.9484L51.7625 14.477L51.116 14.8923L50.6567 15.1818C50.6468 15.1818 50.6393 15.1869 50.6318 15.1944C50.5444 15.3027 50.5245 15.4386 50.5769 15.567C50.6193 15.718 50.6867 15.8389 50.7965 15.9521C50.8065 15.9622 50.8115 15.9723 50.819 15.9849C50.824 15.9924 50.829 15.9975 50.8365 16L50.7316 16.0856L49.7207 16.7753C49.7207 16.7753 49.6508 16.8256 49.4337 16.9767C47.1224 18.5978 44.9908 19.7382 43.7502 20.3096C43.6579 20.36 43.6554 20.36 43.6554 20.36C43.6554 20.36 43.4732 20.3801 43.2535 20.5009C43.0913 20.5941 42.8417 20.8634 42.7219 21.1403Z" fill="#B5AA85"/>
<path fill-rule="evenodd" clip-rule="evenodd" d="M55.0597 12.5034L54.533 15.5645C54.533 15.5645 54.5155 15.5192 54.4956 15.4663C54.236 14.7992 53.3474 14.6356 52.7433 14.6859C52.7383 14.6859 52.7383 14.6859 52.7383 14.6859L52.646 14.7036L55.0597 12.5034Z" fill="#F3F3F3"/>
<path fill-rule="evenodd" clip-rule="evenodd" d="M55.0698 12.4958L56.9943 15.0811H57.0467L57.139 15.0157L57.2788 14.8848L57.4735 14.7539L57.6307 14.6608L57.7406 14.5852L57.9452 14.5198L58.1499 14.482L58.3895 14.472L58.5568 14.4996L58.7515 14.5651L58.8613 14.6029C58.8613 14.6029 58.8363 14.5928 58.6691 14.5147C57.7406 14.0994 56.2504 13.241 55.1846 12.5638C55.0748 12.4984 55.0698 12.4958 55.0698 12.4958Z" fill="#F3F3F3"/>
<path fill-rule="evenodd" clip-rule="evenodd" d="M55.0951 12.5387L52.6514 14.7766C52.6514 14.7766 52.6315 14.8169 52.609 14.832C52.1847 15.1064 52.1847 15.4261 52.1647 15.5998C52.1572 15.6174 52.1872 15.7105 52.1098 15.6501C52.1098 15.6501 52.0724 15.6501 52.0424 15.6249C51.658 15.2927 51.1289 15.192 50.712 15.192C50.6771 15.192 50.6396 15.197 50.6396 15.197L51.1164 14.8949L51.7629 14.4796L52.7089 13.9509L53.4302 13.5557L54.2264 13.0371L54.7606 12.6973L55.0127 12.5261L55.0951 12.5387Z" fill="#C22126"/>
<path fill-rule="evenodd" clip-rule="evenodd" d="M55.1246 12.5059L54.5904 15.6022C54.5904 15.6022 54.5754 15.5569 54.553 15.504C54.2834 14.92 53.4647 14.6884 52.8532 14.7387C52.8482 14.7387 52.7508 14.7589 52.7508 14.7589L52.6011 14.8168L55.1246 12.5059Z" fill="#CD2027"/>
<path fill-rule="evenodd" clip-rule="evenodd" d="M55.1346 12.5059L54.583 15.5845C54.583 15.5845 54.6754 15.4713 54.6878 15.4411C55.0772 14.6154 56.0082 14.2302 56.762 14.8017C56.787 14.8218 56.9143 14.8948 56.9143 14.8948L55.1346 12.5059Z" fill="#D71F26"/>
<path fill-rule="evenodd" clip-rule="evenodd" d="M55.1348 12.4958L57.0817 15.1113H57.1341L57.2264 15.0459L57.3662 14.915L57.5634 14.7816L57.7231 14.6884L57.8529 14.6482L58.0501 14.5827L58.2473 14.555L58.5019 14.5399L58.6666 14.5601L58.8638 14.6255L58.9686 14.6331C58.9686 14.6331 58.9437 14.623 58.774 14.5424C57.8355 14.122 56.3279 13.2536 55.2496 12.5689C55.1398 12.5009 55.1348 12.4958 55.1348 12.4958Z" fill="#E21F26"/>
<path fill-rule="evenodd" clip-rule="evenodd" d="M43.6577 20.3624C43.6577 20.3624 43.6602 20.3624 43.7526 20.312C44.9906 19.7406 47.1222 18.6003 49.436 16.9791C49.6507 16.8281 49.7231 16.7777 49.7231 16.7777L50.734 16.088L51.4828 15.4738L51.6375 15.4209L51.8921 15.5644L52.0868 15.6978L52.2091 15.7733L52.1567 15.8312L51.1683 16.7299L50.0575 17.6512L49.1864 18.3057L48.7022 18.5952L48.4551 18.7186C48.4551 18.7186 48.4201 18.7362 48.3103 18.7966C47.7462 19.0962 46.8451 19.5845 46.5806 20.2189C46.5731 20.2365 46.5731 20.239 46.5731 20.239C46.5731 20.239 46.5606 20.239 46.5057 20.234C45.4224 20.1535 44.8758 19.9772 43.81 20.3171C43.7251 20.3423 43.6577 20.3624 43.6577 20.3624Z" fill="#C22126"/>
<path fill-rule="evenodd" clip-rule="evenodd" d="M52.2743 15.7054L52.474 15.5468L52.6237 15.4335L52.8059 15.2699C52.8059 15.2699 52.8184 15.2649 52.8484 15.2548C53.3151 15.0232 54.4982 14.9577 54.5781 15.8061C54.5806 15.8388 54.5656 15.8766 54.5656 15.8766L53.7195 18.9074L53.6945 18.9527C53.6945 18.9527 53.6771 18.9452 53.6446 18.9301C52.6312 18.2781 49.4089 18.5097 48.7125 18.6079C48.69 18.6104 48.665 18.6104 48.665 18.6104L49.1792 18.3133L49.8731 17.7822L50.9189 16.9288L51.8824 16.0754L52.1445 15.8287L52.2743 15.7054Z" fill="#CD2027"/>
<path fill-rule="evenodd" clip-rule="evenodd" d="M54.6028 15.6803L54.6602 15.5167C54.6602 15.5167 54.6652 15.5117 54.6876 15.4915C55.1319 15.0435 55.8483 14.8924 56.5048 15.0334C56.7643 15.0888 56.8642 15.1064 57.1088 15.2021C57.1412 15.2146 57.1537 15.1744 57.1537 15.1744C57.1537 15.1744 57.2685 15.2876 57.3409 15.3355C59.3427 16.6269 59.8769 16.9088 62.0334 17.9233C62.1033 17.956 62.1433 17.9761 62.1433 17.9761C62.1433 17.9761 62.1258 17.9736 62.0359 17.9585C60.0666 17.6539 57.8751 17.2914 55.9007 17.8201C55.1195 18.029 54.3507 18.3361 53.7541 18.895C53.7167 18.9302 53.6992 18.9478 53.6992 18.9478L54.151 17.3896L54.5329 16.0126L54.6028 15.6803Z" fill="#D71F26"/>
<path fill-rule="evenodd" clip-rule="evenodd" d="M57.1887 15.2171C57.1887 15.2171 57.1413 15.1868 57.1488 15.1818C57.5581 14.769 59.3128 15.3454 59.7471 15.4461C59.787 15.4562 59.812 15.4612 59.812 15.4612C59.812 15.4612 59.812 15.4612 59.827 15.4688C61.7839 16.3448 62.9695 16.8911 65.0661 17.3643C65.2958 17.4172 65.3582 17.4298 65.3582 17.4298C65.3582 17.4298 65.2184 17.4096 65.0761 17.387C64.4671 17.2938 62.8297 16.9767 62.3455 18.044C62.343 18.0591 62.3405 18.0616 62.3405 18.0616C62.3405 18.0616 62.3255 18.0541 62.2656 18.0289C61.407 17.6538 58.4217 16.2189 57.3434 15.3454C57.291 15.2926 57.1887 15.2171 57.1887 15.2171Z" fill="#E21F26"/>
<path fill-rule="evenodd" clip-rule="evenodd" d="M50.6818 15.2626C51.2209 15.2248 51.6952 15.3834 52.1095 15.7384C52.1469 15.761 52.1794 15.7736 52.2218 15.7862V15.6981C52.1869 15.313 52.3966 14.9681 52.7535 14.8271C53.2901 14.7239 53.7868 14.8397 54.2261 15.1695C54.3884 15.2903 54.4882 15.4439 54.5332 15.6402L54.5631 15.8089C54.643 15.6251 54.7204 15.4741 54.8177 15.3004C54.9475 15.0914 55.0973 14.9354 55.3019 14.8019C55.8685 14.4269 56.6223 14.5703 57.0142 15.1267C57.0192 15.1342 57.0167 15.1292 57.0192 15.1342L57.1066 15.2349L57.1914 15.172C57.3612 14.9933 57.5309 14.8674 57.7505 14.7591C57.9877 14.6383 58.2148 14.5855 58.4819 14.5905C58.8438 14.6081 59.1483 14.7667 59.3705 15.0562C59.4603 15.1695 59.5277 15.2777 59.5901 15.4061C59.6001 15.4262 59.6226 15.4338 59.6425 15.4237C59.6625 15.4136 59.67 15.391 59.66 15.3709C59.5402 15.1116 59.3854 14.9177 59.1608 14.7466C58.9536 14.5955 58.739 14.52 58.4844 14.5125C57.9527 14.52 57.5009 14.7214 57.1415 15.1141L57.1215 15.1292L57.0791 15.0788L57.0766 15.0763C56.6548 14.4923 55.861 14.3438 55.2595 14.734C55.0448 14.8749 54.8876 15.0361 54.7503 15.2576L54.5931 15.5597C54.5332 15.3709 54.4308 15.2274 54.2761 15.1091C53.8193 14.7591 53.2976 14.6383 52.7335 14.7516C52.731 14.7516 52.7285 14.7516 52.726 14.7541C52.3516 14.9026 52.122 15.2576 52.1395 15.6654C51.7076 15.3079 51.2184 15.1518 50.6618 15.1871C50.6518 15.1871 50.6443 15.1921 50.6368 15.1997C50.5495 15.3079 50.5295 15.4439 50.5819 15.5722C50.6244 15.7233 50.6918 15.8441 50.8016 15.9574C50.8116 15.9675 50.8166 15.9775 50.824 15.9901C50.834 16.0077 50.859 16.0153 50.8765 16.0052C50.8939 15.9951 50.9014 15.97 50.8914 15.9524C50.8815 15.9347 50.8715 15.9196 50.8565 15.9045C50.7142 15.7636 50.6418 15.5949 50.6368 15.3935C50.6343 15.3406 50.6493 15.3004 50.6818 15.2626Z" fill="#D71F26"/>
<path fill-rule="evenodd" clip-rule="evenodd" d="M42.712 21.1504L42.6421 21.4248L42.6322 21.6186L42.5872 21.8955L42.3975 22.0818C42.3975 22.0818 42.1904 22.1749 42.1604 22.1875C41.9707 22.253 41.6238 22.1271 41.8883 21.9081C41.9358 21.8603 42.0456 21.7495 42.0456 21.7495L42.3177 21.5154L42.5797 21.2888L42.712 21.1504Z" fill="#D71F26"/>
<path fill-rule="evenodd" clip-rule="evenodd" d="M55.0049 8.43042C44.5915 8.43042 36.1499 16.944 36.1499 27.4462C36.1499 37.9485 44.5915 46.4621 55.0049 46.4621C65.4183 46.4621 73.8599 37.9485 73.8599 27.4462C73.8599 16.944 65.4183 8.43042 55.0049 8.43042ZM55.0049 9.54811C45.203 9.54811 37.2581 17.5607 37.2581 27.4462C37.2581 37.3318 45.203 45.3444 55.0049 45.3444C64.8068 45.3444 72.7517 37.3318 72.7517 27.4462C72.7517 17.5633 64.8068 9.54811 55.0049 9.54811Z" fill="#FFD23C"/>
<path fill-rule="evenodd" clip-rule="evenodd" d="M56.6947 34.8546L56.5524 33.9735L56.4676 33.6463L56.3428 33.2913L55.9184 32.0956L55.4542 31.129L55.0298 30.2353L54.608 29.5103L54.1288 28.8835L53.6071 28.1736L53.2976 27.8892L53.1703 27.8187L52.8733 27.7759L52.5787 27.8313L52.5089 27.9169L52.5513 28.0452L52.6761 28.1887L51.9023 28.2013L51.6627 28.3146L50.859 28.229L50.6368 28.3876L50.552 28.4304L50.5245 28.6569L50.3673 29.0547L50.2799 29.2183L50.1202 29.4851L49.9305 29.83L49.6784 30.1774L49.3389 30.5902L49.1143 30.8042L49.4512 31.358L49.9454 32.4808L50.2849 33.2183L50.6069 34.0591L51.3257 35.9622L53.5123 35.5217L54.3434 35.4084L55.9634 35.2523L59.0884 39.6576L59.65 39.5746L59.313 39.1038L60.2016 38.9905L60.3139 38.8068L60.3988 38.8345L60.4837 38.905L61.0453 38.8345L61.2724 38.7917L61.3847 38.6356L61.4122 38.5777L61.5245 38.6633H61.7791H62.2309L62.3856 38.5223L62.4131 38.4493L62.5404 38.4921L62.78 38.5349L63.0346 38.4921L63.3441 38.4367L63.4415 38.2807L63.4714 38.1372L63.3167 37.8099L62.8499 37.0849L62.2733 36.4027L61.4971 35.635L60.9754 35.139L60.4837 34.8823L59.3679 34.8118L58.9611 34.7841L58.2847 34.8118L56.6947 34.8546Z" fill="#C4BCB4"/>
<path fill-rule="evenodd" clip-rule="evenodd" d="M50.2948 30.263L50.4495 30.5751L50.5619 31.0308V31.5141L50.5194 31.6979L50.3522 32.0956L50.2948 32.2945L50.1675 32.4933H50.4371L50.9562 32.4807L51.408 32.5084L51.705 32.5512L52.0994 32.7501L52.5936 33.0346L52.9156 33.3618L52.988 33.6891L53.0579 34.185L53.0704 34.414L53.2975 34.2857L53.5796 34.0868L54.0438 33.9584L54.4257 33.9433H54.8201L55.1446 33.9156L55.4815 33.9433L55.9183 33.9861L56.2154 34.044L56.5523 34.0868L56.1305 32.6947L55.6363 31.4562L55.157 30.477L54.875 29.9357L54.5231 29.3668L53.9889 28.6418L53.592 28.1736L53.3524 27.9471L53.1552 27.8036L52.9306 27.7759L52.6635 27.8036L52.5212 27.8615V27.9471L52.5512 28.0301L52.7059 28.1887L51.9022 28.2013L51.6751 28.2869L50.2523 29.9785L50.2948 30.263Z" fill="#928F8B"/>
<path fill-rule="evenodd" clip-rule="evenodd" d="M48.9224 31.0157L49.3442 31.8413L49.8534 32.949L50.3601 34.2278L50.6147 34.0868L50.2328 33.1201L49.7835 32.1107L49.4291 31.3429L49.1195 30.8042L48.9224 31.0157Z" fill="#8A8886"/>
<path fill-rule="evenodd" clip-rule="evenodd" d="M50.1899 29.4474L50.6567 30.3209L51.1784 31.3001L51.5727 32.224L51.7125 32.5789L52.1069 32.7501L51.6701 31.713L51.2483 30.8873L50.8389 30.049L50.5294 29.538L50.3272 29.2007L50.1899 29.4474Z" fill="#7B7672"/>
<path fill-rule="evenodd" clip-rule="evenodd" d="M50.6567 28.3878L51.106 29.0121L51.5728 29.8378L52.1918 30.9454L52.686 31.9121L53.0954 32.8511L53.335 32.8208L52.9106 31.7409L52.2767 30.4898L51.6851 29.5232L51.2183 28.7L50.8389 28.2292L50.6567 28.3878Z" fill="#7B7672"/>
<path fill-rule="evenodd" clip-rule="evenodd" d="M51.6702 28.3727L52.0945 28.8561L52.6287 29.6238L53.1354 30.4772L53.7419 31.6276L54.0664 32.3677L54.1787 32.6094L54.4907 32.5943L54.0664 31.6125L53.4174 30.3765L52.8408 29.4099L52.3766 28.7554L51.9098 28.2292L51.6577 28.3023L51.6702 28.3727Z" fill="#7B7672"/>
<path fill-rule="evenodd" clip-rule="evenodd" d="M52.6564 28.1888L52.5441 28.0604L52.5166 27.9472L52.574 27.8616L52.7288 27.8893L52.9809 28.1032L53.5175 28.657L54.0242 29.382L54.6732 30.3915L55.0401 31.1593L55.5892 32.4934L56.1109 34.0869L56.2507 34.9101L56.026 34.9403L55.8862 34.0718L55.5618 33.0498L55.0825 31.8415L54.8005 31.1165L54.3911 30.3336L54.0666 29.7949L53.6872 29.2385L53.2929 28.7426L52.9384 28.3021L52.8136 28.2014L52.6564 28.1888Z" fill="#7B7672"/>
<path fill-rule="evenodd" clip-rule="evenodd" d="M56.52 33.8604L56.4775 33.7018L57.1964 33.362L58.1399 33.0196L59.0834 32.8081L59.8023 32.6647L59.9445 32.637L60.5136 32.7226L59.992 32.8358L59.0759 33.0498L58.7664 33.007L58.3146 33.1782L58.2996 33.2487L57.5808 33.4752L56.52 33.8604Z" fill="#6F6660"/>
<path fill-rule="evenodd" clip-rule="evenodd" d="M49.8006 38.2985L49.4911 38.2557H49.2939L49.6883 37.6994L50.4771 36.9316L51.141 36.2645L50.5919 34.8297L50.844 34.6736L51.3532 36.0078L51.6752 35.9373L52.5513 35.7535L53.5222 35.5395L53.6495 35.9952L53.0854 36.038L51.5928 36.4357L51.0986 36.8334L50.3947 37.5307L50.0128 37.9562L49.8006 38.2985Z" fill="#8A8886"/>
<path fill-rule="evenodd" clip-rule="evenodd" d="M54.311 35.4412L55.9759 35.2549L59.0485 39.6476H58.3721L55.7637 35.7231L54.8202 35.781L54.3684 35.8666L54.311 35.4412Z" fill="#8A8886"/>
<path fill-rule="evenodd" clip-rule="evenodd" d="M55.1573 37.9989L55.5517 37.3872L55.8338 37.0448L56.3704 36.6194L55.7514 35.6956L55.1174 35.7535L54.6806 35.7962L54.3711 35.8667L54.5408 36.3929L54.8653 37.3595L55.1573 37.9989ZM54.8753 36.491L54.9027 37.2009L55.2422 36.8586L55.7364 36.5036L54.8753 36.491Z" fill="#6F6660"/>
<path fill-rule="evenodd" clip-rule="evenodd" d="M53.762 36.6345L52.7186 36.7327L51.7901 36.8334L51.3109 37.2034L50.7742 37.6867L50.4073 37.9838L50.2376 38.4243L49.8008 38.2833L50.0279 37.9284L50.5196 37.4023L51.1137 36.8334L51.5929 36.4205L52.4366 36.2065L53.0581 36.0077L53.6496 35.98L53.762 36.6345Z" fill="#6F6660"/>
<path fill-rule="evenodd" clip-rule="evenodd" d="M53.2402 33.591L53.3526 34.2178L53.4799 35.2272L53.5373 35.5545L53.7769 36.6344L53.989 37.3871L54.2836 38.2254L54.4533 38.8522L54.6655 38.9378L55.1447 39.0208L54.7079 38.0693L54.341 37.0473L54.044 35.9648L53.8617 35.0133L53.6221 33.7773L53.5797 33.2939L53.2402 33.45V33.591Z" fill="#AEA9A3"/>
<path fill-rule="evenodd" clip-rule="evenodd" d="M58.2993 33.2788V34.7992H58.7087L58.7236 33.0371L58.2993 33.1806V33.2788Z" fill="#AEA9A3"/>
<path fill-rule="evenodd" clip-rule="evenodd" d="M58.9634 34.7717L59.0333 33.0649L58.7512 33.0247L58.6963 34.7868L58.9634 34.7717Z" fill="#999693"/>
<path fill-rule="evenodd" clip-rule="evenodd" d="M56.4824 33.6916L56.3701 33.3795L56.737 33.1932L57.5408 32.8533L58.4418 32.5261L58.976 32.37L59.4278 32.2844L59.7522 32.3272L59.907 32.4128L59.9769 32.6117L58.936 32.8256L58.2446 32.9817L57.5532 33.2083L56.4824 33.6916Z" fill="#AEA9A3"/>
<path fill-rule="evenodd" clip-rule="evenodd" d="M60.5136 32.7101L60.3589 32.5263L60.2316 32.413L60.0493 32.3551L59.625 32.2695H59.5127L59.7373 32.3425L59.922 32.3979L60.0069 32.6119L60.5136 32.7101Z" fill="#A3A09D"/>
<path fill-rule="evenodd" clip-rule="evenodd" d="M49.9706 34.9983L49.9007 34.8724L49.8857 34.6861L50.0555 34.4747L50.3525 34.2456L50.7594 34.019L51.6055 33.5634L52.5091 33.1506L53.1555 32.8384L53.5374 32.7528L53.832 32.6672L54.129 32.6823L54.411 32.71L54.4809 32.8107L54.5084 32.9089L53.6772 33.1657L52.4367 33.6918L51.3235 34.16L50.4074 34.6735L50.1403 34.8296L49.9706 34.9983Z" fill="#AEA9A3"/>
<path fill-rule="evenodd" clip-rule="evenodd" d="M54.9477 33.0095L54.9751 32.8258L54.8628 32.6823L54.6506 32.5967L54.2563 32.6118L53.9468 32.6395L54.2563 32.6823L54.4385 32.71L54.5084 32.8811L54.9477 33.0095Z" fill="#A3A09D"/>
<path fill-rule="evenodd" clip-rule="evenodd" d="M55.9585 35.2373L56.268 35.2675L56.5226 35.4362L57.1291 36.1612L58.3821 38.024L58.9612 38.8774L59.1584 39.0334L59.3131 39.0611L59.6501 39.5444L59.0586 39.6451L55.9585 35.2373Z" fill="#A3A09D"/>
<path fill-rule="evenodd" clip-rule="evenodd" d="M63.4416 38.1247L63.2868 38.2078L62.9923 38.2506L62.6803 38.2229L62.4282 37.9258L61.8915 37.1429L61.2725 36.4331L60.681 35.7207L60.1718 35.2247L59.8348 34.9529H59.7774L59.9896 35.1517L60.4413 35.6351L60.9331 36.1763L61.597 37.0422L62.0613 37.654L62.4007 38.1801L62.4282 38.3513L62.3159 38.4217H61.9065L61.597 38.4368L61.3574 38.0668L60.8482 37.3418L60.1293 36.3601L59.5952 35.693L59.1709 35.1945L58.9737 35.0385L58.8339 34.9957L58.8489 35.0687L59.2432 35.4941L59.8198 36.1612L60.2292 36.7301L60.681 37.3267L61.2026 38.0517L61.3424 38.3361L61.3574 38.4796L61.3 38.5778L60.6934 38.6357L60.5112 38.5501L60.2441 38.1801L59.6501 37.3141L59.0036 36.4331L58.5369 35.7207L58.1699 35.2675L57.9877 35.0108L57.8604 34.968L57.8055 34.9831L57.9328 35.1392L58.5518 35.9925L59.2008 36.9164L59.9197 37.9107L60.2866 38.5652L60.314 38.7339L60.2441 38.8346H60.032L59.4105 38.8623L59.2008 38.7918L59.0311 38.6357L58.5244 37.9535L57.8604 36.9592L57.4386 36.3475L57.0018 35.7786L56.7622 35.4362L56.55 35.2524L56.3379 35.182H55.9734L54.3086 35.3229V35.3934L55.9585 35.2373H56.1407L56.3803 35.3229L56.5351 35.4513L56.8321 35.7786L57.1566 36.1763L58.6367 38.3789L58.8614 38.749L59.0036 38.9051L59.1159 39.0058L59.2857 39.0762L59.4255 39.0611L60.017 39.0058L60.2017 38.9755L60.2991 38.8346H60.3989L60.4688 38.8774L60.681 38.8623L61.2575 38.7767L61.3848 38.6508L61.4123 38.5652L61.4972 38.6508L61.7093 38.6357L62.201 38.6508L62.3708 38.5224L62.4007 38.4368L62.6403 38.5224L62.7651 38.535L62.9498 38.4922L63.3442 38.4217L63.4291 38.2657L63.4416 38.1247Z" fill="#999592"/>
<path fill-rule="evenodd" clip-rule="evenodd" d="M62.8374 38.5653L63.1195 38.9479L63.8084 38.9907L63.3716 38.4092L62.8374 38.5653Z" fill="#5D5651"/>
<path fill-rule="evenodd" clip-rule="evenodd" d="M64.1331 38.9051L63.8236 38.9755L63.3594 38.4217L63.4417 38.2229V38.0668L63.3719 37.8679L64.1331 38.9051Z" fill="#A3A09D"/>
<path fill-rule="evenodd" clip-rule="evenodd" d="M55.1396 39.0183L55.3367 39.1618L55.5364 39.2751L55.7885 39.2902L55.4216 38.5929L55.1545 37.9535L54.7177 36.9592L54.4781 36.204L54.2959 35.6074L54.0987 34.7112L53.9714 34.1297L53.8865 33.3191L53.6045 33.2612V33.6036L53.8017 34.6407L53.9714 35.6351L54.2385 36.6596L54.6329 37.8251L55.0422 38.8195L55.1396 39.0183Z" fill="#9C9997"/>
<path fill-rule="evenodd" clip-rule="evenodd" d="M54.4258 33.1204L54.5656 33.4905L54.7078 33.9738H54.9874L54.8751 33.5887L54.7627 33.206L54.6929 33.0776L54.4258 33.1204Z" fill="#7B7672"/>
<path fill-rule="evenodd" clip-rule="evenodd" d="M54.708 33.9736L54.8752 34.3135L55.03 34.9831L55.3121 34.9957L55.1723 34.5425L54.9876 33.9862L54.708 33.9736Z" fill="#999592"/>
<path fill-rule="evenodd" clip-rule="evenodd" d="M53.1127 35.3658L52.8306 35.4363L52.5935 34.6836L52.269 33.9435L52.5211 33.8176L52.6909 34.2154L52.9455 34.8548L53.1127 35.3658Z" fill="#999592"/>
<path fill-rule="evenodd" clip-rule="evenodd" d="M51.6902 35.7081L51.9723 35.6502L51.8025 35.0964L51.5205 34.3135L51.2534 34.4419L51.4356 34.9101L51.6902 35.7081Z" fill="#999592"/>
<path fill-rule="evenodd" clip-rule="evenodd" d="M51.029 33.8025L50.8442 33.2763L50.4923 32.5086L50.3226 32.068L50.0555 31.4714L49.6611 30.7188L49.7735 30.6332L49.8858 30.5325L50.0555 30.8597L50.4074 31.5293L50.5198 31.698L50.8318 32.5237L50.9715 32.8081L51.1563 33.2915L51.311 33.6615L51.029 33.8025Z" fill="#999592"/>
<path fill-rule="evenodd" clip-rule="evenodd" d="M51.6904 32.5664L52.0424 33.304L52.297 33.1781L52.1148 32.7502L51.6904 32.5664Z" fill="#999592"/>
<path fill-rule="evenodd" clip-rule="evenodd" d="M49.154 30.8599L49.4635 30.8045L49.6607 30.7038L49.8728 30.5326L50.1549 30.3211L50.4769 30.0367L50.7889 29.722L51.1683 29.3117L51.353 29.1405L51.5502 28.8838L51.6051 28.5137L51.6475 28.345L50.8438 28.2292L50.704 28.3727L50.5617 28.4155L50.5343 28.6295L50.1574 29.4476L49.9452 29.8227L49.6457 30.2205L49.124 30.7617L49.154 30.8599Z" fill="#7B7672"/>
<path fill-rule="evenodd" clip-rule="evenodd" d="M49.9805 35.0259L50.2326 35.0108L50.9789 34.5854L52.3043 33.9309L53.2353 33.5608L53.2503 33.4475L53.5747 33.2764L53.8268 33.2613L53.9117 33.2915L54.9126 33.007L54.5182 32.9365L54.039 33.0498L53.4899 33.2336L52.8409 33.4903L51.7976 33.9586L50.8666 34.3991L50.1777 34.8119L49.9805 35.0259Z" fill="#6F6660"/>
<path fill-rule="evenodd" clip-rule="evenodd" d="M50.3325 32.1109L50.4873 32.5086L50.8242 32.5237L50.5147 31.7131L50.4448 31.9271L50.3325 32.1109Z" fill="#7B7672"/>
<path fill-rule="evenodd" clip-rule="evenodd" d="M57.1714 18.5399C57.8179 19.7105 58.9486 21.7621 58.9486 21.7621C58.9661 21.7948 59.006 21.8074 59.0385 21.7873C59.0709 21.7696 59.0834 21.7294 59.0634 21.6966C59.0634 21.6966 57.9253 19.6299 57.2738 18.4468L58.2572 17.5632L58.2772 17.5481H57.9752L57.1739 18.2655C56.9818 17.9156 56.8495 17.6765 56.8245 17.6337L56.6797 17.6538C56.6822 17.6589 56.837 17.9383 57.0691 18.3587L55.1422 20.0805L55.0523 20.073L56.183 17.7419L55.9334 17.8023L55.0199 19.6828V18.1069L54.7478 18.2227L54.4932 18.3587V19.7608L54.1488 19.139C54.2211 18.628 54.2336 18.5475 54.2336 18.5475C54.2336 18.545 54.2386 18.5122 54.2386 18.5097L54.0889 18.6129C54.0864 18.628 54.0689 18.7489 54.0414 18.9427L53.9266 18.7363L53.7744 18.8672L53.9965 19.2699C53.9765 19.4185 53.9516 19.5846 53.9266 19.7633L51.9448 18.5223L51.6852 18.5047H51.6652L51.5978 18.4996L51.5379 18.4971C51.5379 18.4971 51.5379 18.4996 51.5354 18.4996L48.635 23.0535C48.6151 23.0837 48.6226 23.1265 48.655 23.1466C48.685 23.1668 48.7274 23.1592 48.7474 23.1265L51.6477 18.5676L53.8992 19.9849C53.7269 21.2108 53.4998 22.8168 53.4998 22.8168C53.4948 22.8546 53.5198 22.8873 53.5547 22.8924C53.5921 22.8974 53.6246 22.8722 53.6296 22.837C53.6296 22.837 53.8817 21.0421 54.0215 20.0629L54.3684 20.2794L54.4957 20.2995V29.3443L55.0249 30.2278V20.3902L55.0923 20.4027L57.1714 18.5399ZM54.1088 19.4688L54.4183 20.0302L54.3435 20.0251L54.0539 19.8439L54.1088 19.4688Z" fill="#83835A"/>
<path fill-rule="evenodd" clip-rule="evenodd" d="M48.8872 18.5852C48.8747 18.5852 48.67 18.6078 48.67 18.6078C48.67 18.6078 48.6626 18.6103 48.6276 18.6305C48.2507 18.8218 47.5094 19.1893 47.0177 19.6248C46.808 19.8111 46.6483 20.02 46.5759 20.2139C46.5709 20.2239 46.5659 20.2365 46.5659 20.2365L46.5085 20.2315L46.2239 20.4304C46.194 20.4505 46.1865 20.4933 46.2065 20.5235C46.2264 20.5537 46.2689 20.5613 46.2988 20.5411C46.2988 20.5411 49.1068 18.5625 49.1093 18.5625L48.8872 18.5852Z" fill="#83835A"/>
<path fill-rule="evenodd" clip-rule="evenodd" d="M49.4986 18.5324C49.4387 18.5803 44.4317 22.5929 44.4317 22.5929C44.4017 22.6155 44.3992 22.6583 44.4217 22.686C44.4441 22.7162 44.4866 22.7187 44.514 22.6961C44.514 22.6961 49.7133 18.5199 49.7183 18.5173L49.4986 18.5324Z" fill="#83835A"/>
<path fill-rule="evenodd" clip-rule="evenodd" d="M45.4225 20.1336C45.4225 20.1336 45.3976 20.1311 45.3551 20.1311C44.3792 20.0682 43.875 20.2872 43.6628 20.3602C43.6528 20.3627 43.6279 20.3677 43.6004 20.3702C42.929 20.4886 42.597 21.1733 42.612 21.7371C42.6095 21.7623 42.6095 21.7648 42.6095 21.7648L42.582 21.9108L45.4225 20.1336Z" fill="#83835A"/>
<path fill-rule="evenodd" clip-rule="evenodd" d="M62.3359 18.059L62.1337 17.9709L61.959 17.9482C61.964 17.9508 62.6729 18.2453 62.6729 18.2453C62.7078 18.2604 62.7452 18.2428 62.7602 18.21C62.7752 18.1748 62.7577 18.137 62.7253 18.1219C62.7253 18.1219 62.3783 17.9759 62.3758 17.9759L62.3359 18.059Z" fill="#83835A"/>
<path fill-rule="evenodd" clip-rule="evenodd" d="M59.313 17.5986C59.3255 17.6062 64.8442 20.5011 64.8442 20.5011C64.8766 20.5187 64.9166 20.5061 64.934 20.4734C64.9515 20.4407 64.939 20.4004 64.9066 20.3828C64.9066 20.3828 59.6649 17.6439 59.6425 17.6314L59.313 17.5986Z" fill="#83835A"/>
<path fill-rule="evenodd" clip-rule="evenodd" d="M63.3765 17.3191L65.2585 17.9837L67.1804 18.5174L68.0441 18.6609L68.8578 18.7389L67.4375 18.3487L66.9084 18.1272L65.8525 17.6716L65.3234 17.4249L64.7168 17.3191L64.0454 17.2688L63.4913 17.2814L63.3765 17.3191Z" fill="#83835A"/>
<path fill-rule="evenodd" clip-rule="evenodd" d="M53.5396 18.8899L53.4547 19.192C53.4447 19.2273 53.4647 19.265 53.4996 19.2751C53.5346 19.2852 53.572 19.265 53.582 19.2298L53.6619 18.9403L53.5446 18.8723C53.5446 18.8748 53.5421 18.8849 53.5396 18.8899Z" fill="#7D1416"/>
<path fill-rule="evenodd" clip-rule="evenodd" d="M47.9461 26.8271L48.2007 26.6484L48.5726 26.4898L49.0119 26.4319C49.0119 26.4319 49.2216 26.3916 49.3464 26.369C50.1127 26.2255 51.0861 26.3765 50.9713 27.3079C50.8116 28.6169 49.591 30.9404 48.2232 31.5572C46.8504 32.2519 46.2638 31.2802 46.2638 30.0216C46.2638 29.8554 46.2638 29.717 46.2638 29.717L46.3137 29.3117L46.3536 29.1531C46.3536 29.1531 46.3212 29.0323 46.3037 28.9668C46.1989 28.5867 45.9268 28.0631 46.2463 27.7208C46.3287 27.6327 46.5109 27.4363 46.5109 27.4363C46.5109 27.4363 46.8504 27.0612 46.8853 27.0235C47.2048 26.6685 47.4619 26.6912 47.8987 26.8095C47.9236 26.8196 47.9461 26.8271 47.9461 26.8271Z" fill="#FFEFB3"/>
<path fill-rule="evenodd" clip-rule="evenodd" d="M46.2735 32.219C46.2735 32.219 46.281 32.4909 46.281 32.5513C46.286 32.7199 46.2361 33.0069 46.1787 33.1705C46.1512 33.2461 46.2037 33.3165 46.2935 33.304C46.296 33.304 46.2985 33.304 46.301 33.3014C46.3484 33.2939 46.5306 33.3719 46.6255 33.4676C46.6255 33.4701 46.628 33.4776 46.628 33.4902C46.6654 33.6841 46.5905 34.0189 46.633 34.0717C46.6355 34.0717 46.6455 34.0717 46.6604 34.0692C47.0149 34.0491 47.0498 34.2857 47.1047 34.5702C47.1072 34.5802 47.1122 34.6029 47.1122 34.6029L47.1621 34.5349L47.2495 34.3965L47.2595 34.3184L47.0823 33.8552L46.8576 33.3719L46.4857 32.7703L46.2735 32.219Z" fill="#CE1B1E"/>
<path fill-rule="evenodd" clip-rule="evenodd" d="M46.4436 27.5066C46.4236 27.5268 46.3038 27.6551 46.2439 27.7206C45.9244 28.0629 46.1964 28.584 46.3013 28.9667C46.3188 29.0321 46.3512 29.1529 46.3512 29.1529L46.3113 29.3115L46.2613 29.7168C46.2613 29.7168 46.2613 29.8553 46.2613 30.0214C46.2613 31.2801 46.8479 32.2493 48.2207 31.557C49.2591 31.0913 50.2101 29.6438 50.6793 28.4003C50.6219 28.4179 50.5071 28.4506 50.5021 28.4531C50.1477 28.5563 50.1227 28.6872 49.9704 28.2668C49.9355 28.1737 49.8706 28.1536 49.7758 28.2769C49.7658 28.2895 49.7508 28.3071 49.7383 28.3273C49.4388 28.7124 49.3115 28.3273 49.2766 28.0428C49.2716 28.0076 49.2716 27.9975 49.2716 27.9975L49.2266 27.9044L49.0544 27.9169L48.5627 27.8817L48.358 27.7206L48.2657 27.5242L48.0834 27.3405C48.0834 27.3405 48.0809 27.338 48.0585 27.3203C47.9187 27.192 47.7864 27.0359 47.6267 27.2171C47.6042 27.2423 47.5792 27.27 47.5792 27.27L47.397 27.421C47.397 27.421 47.2897 27.5117 47.2248 27.5645C46.9153 27.8238 46.4061 28.1561 46.4535 27.5494C46.446 27.5293 46.446 27.5268 46.446 27.5268C46.446 27.5268 46.446 27.5192 46.4436 27.5066Z" fill="#F4E1A1"/>
<path fill-rule="evenodd" clip-rule="evenodd" d="M47.7241 26.8522L47.8564 26.9151L48.0835 27.0108L48.2508 27.0989L48.3282 27.1215L48.3631 27.0762L48.3182 27.0259L48.2183 26.9705L48.0835 26.9302L47.9612 26.8698L47.8889 26.8245L47.7965 26.8144L47.7291 26.8069L47.7241 26.8522Z" fill="#FFEFB3"/>
<path fill-rule="evenodd" clip-rule="evenodd" d="M48.0706 38.6207C48.138 38.5779 48.2304 38.515 48.2304 38.515L48.4925 38.3715L48.8494 38.2406L49.1589 38.228H49.4684L49.8853 38.2884L50.2771 38.4093L50.5018 38.4697L51.001 38.5427L51.4652 38.5779L51.9045 38.6509L52.1891 38.7239L52.3913 38.7969L52.6159 38.7844L52.9728 38.8322L53.0677 38.953L52.7108 38.9656L52.3064 38.9178L52.2116 38.953L52.1891 39.0361L51.927 39.0713L51.5601 39.0965L51.1557 39.2048L50.7988 39.2652C50.7988 39.2652 50.699 39.2903 50.6341 39.308C50.4419 39.3356 50.1423 39.2652 50.2247 39.1418C50.2921 39.0436 50.1473 38.9782 49.9077 39.0562C49.9452 39.0537 48.7446 39.0537 48.7795 39.0562C48.5049 39.0462 48.4151 38.9429 48.5898 38.9002C49.0341 38.7894 48.4625 38.7969 48.2678 38.7793C48.2529 38.7793 48.2354 38.7793 48.2204 38.7818C48.0607 38.7793 47.8934 38.739 48.0706 38.6207Z" fill="#F2E2AE"/>
<path fill-rule="evenodd" clip-rule="evenodd" d="M53.158 39.6428L53.455 39.5597L53.8219 39.4036L54.1539 39.1645L54.3785 38.9958L54.4609 38.8523L54.7105 38.8271L54.8303 38.9102L55.045 38.9933L55.2596 39.0537L55.4369 39.1368L55.5916 39.2324L55.7938 39.2073L56.0434 39.2425L56.4103 39.2677L56.7672 39.2324L56.9819 39.3155L57.2066 39.4363C57.2066 39.4363 57.3388 39.5169 57.4137 39.5597C57.8106 39.7963 57.6633 39.7963 57.3813 39.8542C57.3763 39.8542 57.3738 39.8567 57.3738 39.8567C57.3738 39.8567 57.2864 39.8467 57.1716 39.8366C56.7248 39.7913 56.5576 39.756 56.1432 39.9373C56.0958 39.9574 56.0559 39.9776 56.0559 39.9776L55.7838 40.0002C55.7838 40.0002 55.7289 39.9901 55.644 39.9776C55.1323 39.892 54.5583 39.7208 54.0366 39.8517C54.0166 39.8567 54.0141 39.8567 54.0141 39.8567H53.7046L53.2878 39.7963L53.1455 39.7233L53.158 39.6428Z" fill="#F2E2AE"/>
<path fill-rule="evenodd" clip-rule="evenodd" d="M46.2063 28.6545C46.2412 28.7577 46.2762 28.8584 46.3011 28.949C46.3186 29.0145 46.3511 29.1353 46.3511 29.1353C46.3511 29.1353 46.3511 29.1353 46.3486 29.1479L46.3511 29.1555L46.3436 29.1706C46.3361 29.1983 46.3136 29.2939 46.3136 29.2939L46.2637 29.6992C46.2637 29.6992 46.2637 29.8377 46.2637 30.0038C46.2637 30.7917 46.4933 31.4664 47.0025 31.6904L47.3145 31.5192L47.5242 31.3405L47.8287 30.983L48.1657 30.6256L48.3254 30.1548L48.5501 29.7344L48.7597 29.2964L48.9195 28.6168L48.1632 29.1026C48.1632 29.1026 48.0733 29.0548 47.9635 28.9969C47.5616 28.7829 47.4194 28.6847 47.4119 28.1662C47.4069 27.8389 47.2571 27.9169 46.9551 28.1536C46.6955 28.3575 46.0141 28.3424 46.406 27.7936C46.4334 27.7634 46.411 27.5318 46.1963 27.776C46.1813 27.8037 46.1264 27.9018 46.1264 27.9018L46.099 28.0076L46.084 28.1787L46.1539 28.4859L46.2063 28.6545Z" fill="#E9D79B"/>
<path fill-rule="evenodd" clip-rule="evenodd" d="M48.3954 27.1014C48.3954 27.1014 48.3954 27.1014 48.4004 27.114C48.8123 28.0101 47.8862 29.2612 47.0076 29.3997C46.8179 29.4299 46.5109 29.3846 46.3961 29.2033C46.3811 29.1782 46.3711 29.1631 46.3711 29.1631L46.4311 29.3116L46.5184 29.44L46.6757 29.6363L46.803 29.7748L46.8704 29.815C46.8704 29.815 46.8454 29.8327 46.8279 29.8478C46.139 30.3865 45.9693 32.0529 46.451 32.8232C47.0376 33.7647 47.6291 34.6055 47.0276 35.761C46.9228 35.9598 47.0001 36.1234 47.1599 36.2669C47.2048 36.3173 47.2647 36.3802 47.3122 36.428C47.4969 36.6143 47.5767 36.5615 47.6766 36.3827C48.358 35.1543 47.7689 33.5608 47.115 32.5061C46.5708 31.6275 46.5708 30.8094 47.1998 29.9208C47.2148 29.8981 47.2248 29.8855 47.2248 29.8855C47.2248 29.8855 47.2298 29.8855 47.2647 29.8855C48.4279 29.8528 49.3714 28.5639 49.1018 27.4765C49.0968 27.4513 49.0943 27.4462 49.0943 27.4462L49.0169 27.3279L48.8123 27.1794L48.5976 27.0712L48.4304 27.051L48.363 27.0611L48.3954 27.1014Z" fill="#ED2024"/>
<path d="M55.1871 19.9722H54.3135V21.3617H55.1871V19.9722Z" fill="#908E69"/>
<path fill-rule="evenodd" clip-rule="evenodd" d="M59.3207 23.5696C59.0935 23.5268 59.0136 23.6024 58.8539 23.7534C58.8215 23.7836 58.789 23.8289 58.789 23.8465C58.789 23.8591 58.7965 23.8717 58.7915 23.8793C58.7865 23.8843 58.774 23.8868 58.7715 23.8893C58.7665 23.8944 58.7715 23.9044 58.769 23.912C58.7665 23.9221 58.7266 23.9221 58.6892 23.917C58.5993 23.9019 58.3722 23.7937 58.2848 23.7786C58.1725 23.7584 57.6084 23.771 57.5984 23.7534C57.566 23.7106 57.6908 23.6728 57.858 23.6326C57.9529 23.6074 58.0352 23.5923 58.1051 23.5948C58.2624 23.5973 58.5344 23.6452 58.5669 23.6326C58.6542 23.6024 58.7391 23.4362 58.9288 23.4211C59.0486 23.411 59.2558 23.4664 59.3207 23.5168C59.3581 23.547 59.4055 23.5898 59.393 23.5923C59.3831 23.5948 59.3381 23.5722 59.3207 23.5696Z" fill="white"/>
<path fill-rule="evenodd" clip-rule="evenodd" d="M66.8008 26.2555L67.2002 26.2605C67.2701 26.2605 67.2801 26.263 67.305 26.2706C67.325 26.2756 67.345 26.2857 67.3599 26.2958C67.3774 26.3083 67.3899 26.326 67.3849 26.331C67.3799 26.336 67.3525 26.3234 67.325 26.3159C67.295 26.3083 67.2651 26.3083 67.2351 26.3159C67.1303 26.3386 67.1128 26.3587 67.0729 26.3411C67.0529 26.3335 66.8632 26.472 66.7409 26.5601C66.6685 26.6155 66.2667 26.8194 66.2143 26.8395C66.1693 26.8546 66.1569 26.8471 66.1219 26.7967C66.0071 26.6331 65.9172 26.4846 65.7225 26.399C65.6027 26.3486 65.4205 26.2756 65.4105 26.253C65.4055 26.2429 65.4055 26.2353 65.4006 26.2253C65.3706 26.1925 64.9887 26.1598 65.2433 26.1221C65.3581 26.1044 65.6102 26.1195 65.7275 26.1699C65.755 26.1825 65.78 26.1951 65.8099 26.2051C65.8498 26.2177 65.8973 26.2228 65.9322 26.2404C65.9422 26.2454 65.9522 26.2504 65.9622 26.2555C66.0345 26.2958 66.1519 26.331 66.2292 26.3612C66.374 26.4166 66.4239 26.4015 66.5437 26.3234C66.5762 26.3033 66.6211 26.2807 66.6635 26.2681C66.7185 26.2555 66.7334 26.2555 66.8008 26.2555Z" fill="white"/>
</g>
<defs>
<linearGradient id="paint0_linear" x1="55.0056" y1="9.54913" x2="55.0056" y2="29.8071" gradientUnits="userSpaceOnUse">
<stop stop-color="#65A7DB"/>
<stop offset="1" stop-color="#BADEE4"/>
</linearGradient>
<linearGradient id="paint1_linear" x1="55.0053" y1="29.3266" x2="55.0053" y2="33.5707" gradientUnits="userSpaceOnUse">
<stop stop-color="#00A4AC"/>
<stop offset="1" stop-color="#6DC8BF"/>
</linearGradient>
<clipPath id="clip0">
<rect width="110" height="113.204" fill="white"/>
</clipPath>
</defs>
</svg>
