<svg id="Layer_1" data-name="Layer 1" aria-hidden="true" focusable="false" xmlns="http://www.w3.org/2000/svg" xmlns:xlink="http://www.w3.org/1999/xlink" width="532.35" height="132.89" viewBox="0 0 532.35 132.89"><defs><linearGradient id="linear-gradient" x1="134.42" y1="127.25" x2="73.86" y2="83.7" gradientUnits="userSpaceOnUse"><stop offset="0.05" stop-color="#b2b2b2"/><stop offset="1" stop-color="#1c1c1c"/></linearGradient></defs><path d="M90.48,64.7V94c7.49-.58,15-1.1,22.28-1.27v-28ZM102.74,0C54.87-1.16,21.37,52.77,42.81,95.13a134.49,134.49,0,0,0,17,.67V63.92l-12.42-.57,15.21-10.7V31.28H77.48v9.77l30.26-20.93L164.87,64.7h-9.68L106.26,27.4l-4.86,3.41,41.07,31V94.68a87.48,87.48,0,0,1,17.74,5.08C186.18,57.56,152.81-1.38,102.74,0Zm-8.6,22.43a6.2,6.2,0,0,0-5-2.63c1.13-.86,3.6.05,4.46.38,1.25-.47,2.48-1.55,3.92-1.29C95.84,19.39,94.94,21,94.14,22.45ZM96.57,8.94a8.09,8.09,0,0,0-8.64,1.3c1.48-3.06,4.52-3.75,7.5-3.37,1.95-1.86,6.06-5,8.9-2.31C100.88,3.53,97.87,6.57,96.57,8.94Zm20.35,6.67a8.07,8.07,0,0,0-8.64,1.31c1.48-3.07,4.52-3.76,7.5-3.38,2-1.86,6.06-5,8.9-2.31C121.23,10.22,118.22,13.24,116.92,15.61Z" fill="#124a83"/><path d="M24.27,97.3c.46-.08.51.18.54.45C62.44,115.54,142,83,176.84,117.05,129,103.38,50.33,154.83,24.27,97.3Zm63.48,19.75c-23.61.86-39.74-4.56-53.34-12.12C40.87,118.46,68.54,125.14,87.75,117.05Z" fill="#00a9d2" fill-rule="evenodd"/><path d="M167.77,124.68c-25.91,3.53-56.25,14.29-82.15,3.59C113.33,127.57,142.22,113.49,167.77,124.68Z" fill="#00a9d2" fill-rule="evenodd"/><path d="M53.46,111a68.27,68.27,0,0,1-5.53-7,97.52,97.52,0,0,1-15-6.8C36,103.64,43.94,108.53,53.46,111Z" fill="none"/><path d="M14.47,41v0Z" fill="url(#linear-gradient)"/><path d="M38.14,69.75c-2.44-4.48-5.09-8.94-7.77-12.92.48-3.83,6.4-27.9,7.73-30C45.35,26,52.38,45.48,51.94,47.1,57.09,39.23,49.86,24.56,39,23.86c16.22-6.64,17.47,11.93,17.47,11.93C62.39,28.23,52.65,14.12,40,19.48c12.76-11.94,19,.9,19.32,2.06,2.61-7.51-12-17.76-20.77-6.95-.83-3.22-6.53-8.2-14.7-5.1,9.7-.16,11,8.83,11,8.83-.16-.14-10.49-6.32-15.74,2-.05.24-.1.48-.16.71,8.25-6.62,13.91-.21,13.91-.21-.15,0-8.44.41-12.07,7.48-6.39,1.09-8.32,6.43-7.7,8.87C3,33.13-3,45.52,1.55,49.66c-.2-.92-.76-12,12.36-8.61C3.31,42.13,2,55.35,8.8,58.28c0,0-6.08-13.09,7.42-14.62C9.1,48.17,9.66,60.84,16.1,64.27c-.91-.94-3.4-16.79,1.84-18.94,2.77,1.53,6,5.46,9.24,10.64C23.41,72.41,20,90.83,25.76,100.32l8.11,1.89-2.3-6.62c-2.76-9.27-2.91-22.37-1.63-34.9,2.26,4.14,13.57,45.39,13.57,45.39l10-.66C52.5,101,44.83,82.67,40.38,74ZM27.83,53.22c-3.18-4.31-6.31-7.75-9.09-9.57-.49-2,6.42-5.58,12.29-2.33C30,45,28.85,49,27.83,53.22Zm7.35-27.53c-1.28,2.42-3.13,12.25-3.63,13.88-5.82-3.38-12.16-.33-12.28-.27s1.5-6.72,10-5C22.14,29.47,17,38.17,17,38.34a8.16,8.16,0,0,1,3.65-9.79c-.05.11-.12.21-.17.32.12-.16.25-.29.37-.44l.31-.19-.18,0C25.93,22.33,36.31,21.91,35.18,25.69Z" fill="#00a9d2"/><path d="M182.48,39.3c.05-3.55,1.69-5.44,4.79-5.89h6.84a9.81,9.81,0,0,1,8,3.74,8.14,8.14,0,0,1-1.7,12c8.29,3.24,8.09,14.27.65,18a15,15,0,0,1-6.63,1.19H182.48Zm6.58,22.76c2.1,0,5.59.25,7.64-.35,5.09-1.35,4-7.34-.75-8.44-1.39-.3-4.74-.55-5.74,1-1.59-3.74-.85-6.34,4.44-7.34a3.53,3.53,0,0,0-.29-7,31.88,31.88,0,0,0-5.3-.15Z" fill="#124a83"/><path d="M216.26,33.41V55.17c0,4.39,1.35,7.43,5.59,7.43s6-2.79,6-7.58V39.45c0-3.65,1.4-6.19,6.59-6V54.07c0,8.68-2.55,14.87-12.58,14.87s-12.28-6.14-12.28-14.87V33.41Z" fill="#124a83"/><path d="M242.66,33.41h1.1l15.07,23v-23h6.59V68.34h-6.34l-15-22.9v22.9h-6.59V38.7A4.94,4.94,0,0,1,242.66,33.41Z" fill="#124a83"/><path d="M278,42.59c-7.33,7.24-2.39,20.21,9,20.21,4.49,0,7.88-1.89,9.13-5.94h-9.23c-3.5,0-5.29-3.14-5-6.18h21.66c1.1,12.07-8.39,18.61-17.37,18.51a18.24,18.24,0,1,1,.4-36.48c9.53,0,18.47,5.89,12.43,13.17C297.06,39.7,284.58,36.15,278,42.59Z" fill="#124a83"/><path d="M322.11,33.61l13.38,34.73H328.6l-2.7-7.13c-3.94,0-10.13-.5-9,3-4.84-1.4-4.64-5.79-2.25-7.83s5.89-1.6,8.84-1.6l-4.69-12c-4.2,10.78-6.24,16.07-9.89,25.5H302l11.72-30.29C315.07,34.55,317.52,32.81,322.11,33.61Z" fill="#124a83"/><path d="M357,62v6.33H338.42V38.65c0-3.3,2.6-5.29,6.59-5.24V62Z" fill="#124a83"/><path d="M389.68,38.1a17.65,17.65,0,0,1,5.29,13,17.43,17.43,0,0,1-5.19,12.83,18.13,18.13,0,0,1-25.65-.15A17.87,17.87,0,0,1,359,50.93,16.89,16.89,0,0,1,360.33,44c3.25-6.49,15.23-5.19,13.13,2.89-2.55-3-8-1.64-7.79,4.89a10.75,10.75,0,0,0,4.1,8.34,11.09,11.09,0,0,0,7.33,2.64A10.71,10.71,0,0,0,385,59.41,11.62,11.62,0,0,0,388.33,51,11.71,11.71,0,0,0,385,42.64,11,11,0,0,0,377,39.25a11.52,11.52,0,0,0-4,.65c-2.4-2.2-6.84-2.35-10-.35a18.31,18.31,0,0,1,5-4.35,17.78,17.78,0,0,1,9.08-2.44A17.14,17.14,0,0,1,389.68,38.1Z" fill="#124a83"/><path d="M402.75,33.51l5,22.26,4.54-16.22c1.1-3.9,3.2-6.34,7.19-6l6.34,22.26L429.5,39.5c1-4.3,3.3-6.59,7.89-6l-7.94,34.83h-6.33l-6.39-22.51-6.29,22.51h-6.29l-7.94-34.83Z" fill="#124a83"/><path d="M449.36,39.3c.05-3.55,1.7-5.44,4.79-5.89H461a9.81,9.81,0,0,1,8,3.74,8.15,8.15,0,0,1-1.69,12c8.28,3.24,8.08,14.27.65,18a15.05,15.05,0,0,1-6.64,1.19H449.36ZM456,62.06c2.09,0,5.59.25,7.63-.35,5.1-1.35,4-7.34-.74-8.44-1.4-.3-4.75-.55-5.74,1-1.6-3.74-.85-6.34,4.44-7.34a3.53,3.53,0,0,0-.3-7A31.76,31.76,0,0,0,456,39.8Z" fill="#124a83"/><path d="M493.53,33.61l13.38,34.73H500l-2.7-7.13c-3.94,0-10.13-.5-9,3-4.84-1.4-4.64-5.79-2.25-7.83s5.89-1.6,8.84-1.6l-4.7-12C486,53.62,484,58.91,480.3,68.34h-6.89l11.73-30.29C486.49,34.55,488.94,32.81,493.53,33.61Z" fill="#124a83"/><path d="M509.84,58.61c1.55,2.9,5.49,4.39,8.79,4.24,4.69-.15,7.34-2.34,7.34-7.13-1,2.44-4.85,3.64-7.24,3.79a8.85,8.85,0,0,1-7-2.65c-1.5-1.49-2.19-3.69-2.19-6.63V33.41h6.28c0,3.29-.25,14.77.4,17.12A3.93,3.93,0,0,0,520,53.67c2.24,0,4.19-1.55,4.14-3.49a2.72,2.72,0,0,1,1.8,1.74V33.41h6.38V56c0,7.78-4.49,12.77-13.07,12.77C512.79,68.79,507.9,65.4,509.84,58.61Z" fill="#124a83"/><path d="M257,93.41,259.36,97l-.33.23a1,1,0,0,0-.58-.33,4.74,4.74,0,0,0-1.28.61,17.84,17.84,0,0,1-3.69,1.71,12.75,12.75,0,0,1-3.55.44,11,11,0,0,1-6.74-2,8.14,8.14,0,0,1-2.44-2.81,8.88,8.88,0,0,1-1-4.23,8.54,8.54,0,0,1,1.85-5.48c1.84-2.33,4.64-3.5,8.37-3.5a12.6,12.6,0,0,1,3.54.43,18.27,18.27,0,0,1,3.69,1.71,4.71,4.71,0,0,0,1.28.59,1,1,0,0,0,.58-.33l.33.23L257,88l-.34-.23c0-.14,0-.25,0-.34a.93.93,0,0,0-.32-.69,5,5,0,0,0-1.13-.78,9.52,9.52,0,0,0-4.77-1.27,7.14,7.14,0,0,0-4.74,1.49,6,6,0,0,0,0,9.09,7.14,7.14,0,0,0,4.74,1.49,9.53,9.53,0,0,0,4.77-1.28,5,5,0,0,0,1.13-.78.93.93,0,0,0,.32-.69c0-.09,0-.2,0-.33Z" fill="#00a9d2"/><path d="M282.47,81.71a10.26,10.26,0,0,1,7.21,2.45,9,9,0,0,1,1.46,11.29q-2.64,4.23-8.64,4.23a10.12,10.12,0,0,1-7.16-2.46,8.64,8.64,0,0,1-2.17-3.14,9,9,0,0,1-.64-3.39,8.89,8.89,0,0,1,1.33-4.77Q276.42,81.78,282.47,81.71Zm0,3a6,6,0,0,0-4.14,1.47,6.28,6.28,0,0,0,0,9.12,6.57,6.57,0,0,0,8.31,0,5.61,5.61,0,0,0,1.5-2.14,6.14,6.14,0,0,0,.46-2.34,5.81,5.81,0,0,0-2-4.64A6.27,6.27,0,0,0,282.49,84.66Z" fill="#00a9d2"/><path d="M315.62,84.88V98a.9.9,0,0,0,.17.59,1.23,1.23,0,0,0,.64.33v.41H311V99a1.23,1.23,0,0,0,.64-.33.85.85,0,0,0,.18-.59V84.88h-5.39a.87.87,0,0,0-.59.17,1.31,1.31,0,0,0-.33.64h-.41V81.2h.41a1.4,1.4,0,0,0,.34.64.82.82,0,0,0,.58.18H321a.86.86,0,0,0,.6-.18,1.23,1.23,0,0,0,.33-.64h.41v4.49h-.41a1.23,1.23,0,0,0-.33-.64.86.86,0,0,0-.6-.17Z" fill="#00a9d2"/><path d="M344.63,84.88V98a.85.85,0,0,0,.18.59,1.24,1.24,0,0,0,.63.33v.41H340V99a1.24,1.24,0,0,0,.63-.33.85.85,0,0,0,.18-.59V84.88h-5.39a.84.84,0,0,0-.58.17,1.23,1.23,0,0,0-.33.64h-.41V81.2h.41a1.4,1.4,0,0,0,.33.64.84.84,0,0,0,.58.18H350a.9.9,0,0,0,.6-.18,1.4,1.4,0,0,0,.33-.64h.4v4.49h-.4a1.4,1.4,0,0,0-.33-.64.89.89,0,0,0-.6-.17Z" fill="#00a9d2"/><path d="M375.3,95h-7.89l-1.17,2.44a2,2,0,0,0-.24.8c0,.37.28.63.85.77v.41h-5.74V99a1.42,1.42,0,0,0,.77-.35,3.46,3.46,0,0,0,.62-1l6.38-13.34a2.54,2.54,0,0,0,.3-1c0-.39-.24-.67-.73-.84V82h6.15v.4q-.75.22-.75.75a1.86,1.86,0,0,0,.24.84l6.61,13.38a4.55,4.55,0,0,0,.74,1.16,1.55,1.55,0,0,0,.85.41v.41H375.9V99q.84-.13.84-.78a2,2,0,0,0-.25-.79Zm-1.09-2.38-2.82-6.18-2.86,6.18Z" fill="#00a9d2"/><path d="M409.36,93.13h-4.28a.83.83,0,0,0-.59.18,1.27,1.27,0,0,0-.33.63h-.41v-4h.41a1.35,1.35,0,0,0,.32.64.88.88,0,0,0,.6.17h8.22v.41a1.24,1.24,0,0,0-.63.33.86.86,0,0,0-.18.6v3.56a.9.9,0,0,0,.17.59,1.31,1.31,0,0,0,.64.34v.31a19.32,19.32,0,0,1-9.58,2.83,11.12,11.12,0,0,1-6.86-2,8.95,8.95,0,0,1-.37-13.63A11.42,11.42,0,0,1,404,81.71a13.93,13.93,0,0,1,2.8.27,19.45,19.45,0,0,1,3,.93,4.22,4.22,0,0,0,1.24.34,1.1,1.1,0,0,0,.62-.29l.36.19L410,87.31l-.36-.19a1.45,1.45,0,0,0-.12-.61,1.62,1.62,0,0,0-.46-.44,6.83,6.83,0,0,0-2.27-1,10.87,10.87,0,0,0-2.83-.41,6.77,6.77,0,0,0-4.52,1.52,5.75,5.75,0,0,0-2,4.56,5.59,5.59,0,0,0,2,4.44,7.08,7.08,0,0,0,4.76,1.55A12.38,12.38,0,0,0,407,96.4a9.31,9.31,0,0,0,2.41-.91Z" fill="#00a9d2"/><path d="M432.33,91.75v4.76h11.16a.84.84,0,0,0,.58-.18,1.24,1.24,0,0,0,.33-.63h.41v4.48h-.41a1.24,1.24,0,0,0-.33-.63.84.84,0,0,0-.58-.18H427.72V99a1.23,1.23,0,0,0,.64-.33.85.85,0,0,0,.18-.59V83.35a.9.9,0,0,0-.18-.6,1.4,1.4,0,0,0-.64-.33V82h15.46a.82.82,0,0,0,.59-.19,1.41,1.41,0,0,0,.33-.63h.41v4.49h-.41a1.41,1.41,0,0,0-.33-.63.87.87,0,0,0-.59-.18H432.33V89h7a.84.84,0,0,0,.58-.18,1.23,1.23,0,0,0,.33-.64h.41v4.39h-.41a1.24,1.24,0,0,0-.33-.63.84.84,0,0,0-.58-.19Z" fill="#00a9d2"/><path d="M475.11,83.49,473,87.57l-.36-.2a1.64,1.64,0,0,0,0-.2c0-.29-.24-.6-.73-.93a9.08,9.08,0,0,0-5.32-1.58,7.82,7.82,0,0,0-2.38.33,2.82,2.82,0,0,0-1.21.76,1.61,1.61,0,0,0-.46,1.11c0,.65.39,1.09,1.18,1.33a17.64,17.64,0,0,0,2.62.38l2,.21a15.69,15.69,0,0,1,2.88.52,7,7,0,0,1,2,.92,4.38,4.38,0,0,1,1.36,1.64,4.77,4.77,0,0,1,.5,2.17,4.94,4.94,0,0,1-1.18,3.26,6.41,6.41,0,0,1-3.32,1.92,13.39,13.39,0,0,1-3.6.47,15.31,15.31,0,0,1-6.8-1.66,3.6,3.6,0,0,0-.85-.33,1.14,1.14,0,0,0-.52.28l-.37-.19,1.88-4.26.37.18v.17a1.38,1.38,0,0,0,.55,1,6.86,6.86,0,0,0,2.55,1.27,11.07,11.07,0,0,0,3.28.54,6.68,6.68,0,0,0,2.89-.57,3,3,0,0,0,1.06-.85,1.83,1.83,0,0,0,.39-1.1,1.28,1.28,0,0,0-.93-1.23,12.59,12.59,0,0,0-2.62-.47l-2-.2c-1.31-.14-2.24-.27-2.78-.39a7.12,7.12,0,0,1-1.63-.59,4.25,4.25,0,0,1-1.82-1.72,4.67,4.67,0,0,1-.59-2.36,4.8,4.8,0,0,1,1.51-3.64c1.32-1.27,3.31-1.9,6-1.9a13.27,13.27,0,0,1,3.1.34,23.12,23.12,0,0,1,3.59,1.24,3.84,3.84,0,0,0,.9.3,1,1,0,0,0,.62-.3Z" fill="#00a9d2"/><rect x="182.48" y="89.19" width="50.98" height="3.01" fill="#00a9d2"/><rect x="481.38" y="89.19" width="50.98" height="3.01" fill="#00a9d2"/></svg>