<svg width="182" height="59" viewBox="0 0 182 59" fill="none" xmlns="http://www.w3.org/2000/svg">
<path d="M0 0V41.9672H41.9712V0H0ZM22.3161 5.03639H26.9952C31.3136 5.47492 34.4428 8.84865 34.4052 13.0187C34.3675 17.1512 31.2706 20.4307 26.9952 20.8666L22.3161 20.8639V5.03639ZM17.777 36.6887H5.94362V4.98527H17.777V36.6887ZM22.3161 36.7371V20.9661L38.7263 36.7371H22.3161Z" fill="white"/>
<path d="M1.89941 44.0469H3.58644C4.52278 44.0469 5.0071 44.176 5.3219 44.3939C5.81429 44.7168 6.11295 45.3383 6.11295 46.0082C6.11295 46.4279 5.99187 46.8314 5.77393 47.1462C5.4672 47.574 5.07975 47.7192 4.61965 47.8L6.02416 50.0195H5.01517L3.37657 47.3238H3.58644C3.99811 47.3238 4.49857 47.3076 4.78109 47.0655C5.05553 46.8233 5.19275 46.4763 5.19275 46.0889C5.19275 45.6853 4.99903 45.2898 4.68422 45.08C4.42592 44.9186 4.09497 44.8863 3.66716 44.8863H2.8519V50.0195H1.89941V44.0469Z" fill="white"/>
<path d="M7.70312 44.0469H11.0449V44.8863H8.65561V46.5812H11.0126V47.4125H8.65561V49.1801H11.0449V50.0195H7.70312V44.0469Z" fill="white"/>
<path d="M13.3833 50.0195H12.3501L14.804 44.0469H15.6677L18.0812 50.0195H17.048L16.4829 48.6071H13.9322L13.3833 50.0195ZM15.1995 45.1526L14.1905 47.8403H16.2246L15.1995 45.1526Z" fill="white"/>
<path d="M19.48 44.0469H20.4325V49.1801H22.5392V50.0195H19.48V44.0469Z" fill="white"/>
<path d="M24.3205 44.8863H22.9482V44.0469H26.6452V44.8863H25.273V50.0195H24.3205V44.8863Z" fill="white"/>
<path d="M27.5034 47.0654C27.5034 45.1849 28.9483 43.9338 30.6272 43.9338C32.4111 43.9338 33.7591 45.314 33.7591 47.0332C33.7591 48.7523 32.4111 50.1325 30.6192 50.1325C28.8191 50.1325 27.5034 48.72 27.5034 47.0735V47.0654ZM28.4451 47.0332C28.4451 48.2761 29.3653 49.2931 30.6407 49.2931C31.9403 49.2931 32.804 48.2035 32.804 47.0412C32.804 45.8709 31.9403 44.7732 30.6326 44.7732C29.333 44.7732 28.4451 45.8225 28.4451 47.0251V47.0332Z" fill="white"/>
<path d="M35.4087 44.0469H37.0957C38.0321 44.0469 38.5164 44.176 38.8312 44.3939C39.3236 44.7168 39.6222 45.3383 39.6222 46.0082C39.6222 46.4279 39.5012 46.8314 39.2832 47.1462C38.9765 47.574 38.589 47.7192 38.1289 47.8L39.5334 50.0195H38.5244L36.8859 47.3238H37.0957C37.5074 47.3238 38.0078 47.3076 38.2904 47.0655C38.5648 46.8233 38.702 46.4763 38.702 46.0889C38.702 45.6853 38.5083 45.2898 38.1935 45.08C37.9352 44.9186 37.6043 44.8863 37.1764 44.8863H36.3612V50.0195H35.4087V44.0469Z" fill="white"/>
<path d="M42.512 43.7886C43.5129 43.7886 44.2959 44.6118 44.2959 45.5911C44.2959 46.592 43.4914 47.3937 42.5039 47.3937C41.5057 47.3937 40.7012 46.5946 40.7012 45.5911C40.7012 44.6172 41.4788 43.7886 42.5066 43.7886H42.512ZM42.4985 44.0899C41.6617 44.0899 41.0267 44.7733 41.0267 45.5911C41.0267 46.4225 41.6913 47.0924 42.5039 47.0924C43.3138 47.0924 43.973 46.4332 43.973 45.5911C43.973 44.7813 43.3461 44.0899 42.5039 44.0899H42.4985ZM42.5819 44.5661C42.9021 44.5661 43.3111 44.6899 43.3111 45.1311C43.3111 45.314 43.2411 45.5077 42.9667 45.6261C43.1497 45.6934 43.2546 45.8091 43.2734 46.0915C43.2976 46.4574 43.2976 46.4951 43.3353 46.5946H42.9398C42.9021 46.5274 42.8887 46.261 42.8725 46.1158C42.8591 45.9597 42.8295 45.7768 42.4501 45.7768H42.1353V46.5946H41.7263V44.5661H42.5819ZM42.1353 44.8567V45.5023H42.4797C42.5981 45.497 42.9075 45.5023 42.9075 45.158C42.9075 44.8567 42.6357 44.8567 42.5174 44.8567H42.1353Z" fill="white"/>
<path d="M76.0347 49.4061L81.8491 30.6218H88.0053L83.9532 43.533H91.0377L89.278 49.4061H76.0347Z" fill="white"/>
<path d="M59.9851 39.2903L59.6972 49.3711H63.978L70.4301 39.2903L67.0561 49.3711H72.588L78.3998 30.5869H70.7019L64.9897 39.3979L65.1942 30.5869H56.9016L51.0898 49.3711H56.6191L59.9851 39.2903Z" fill="white"/>
<path d="M105.799 36.0484C105.882 35.4027 105.629 35.0126 105.263 34.7813C104.87 34.5472 104.362 34.445 103.764 34.445C102.419 34.445 101.711 34.8324 101.55 35.505C100.815 38.3003 111.987 36.565 110.179 43.3447C109.052 47.6655 104.908 49.7613 99.7877 49.7613C94.8719 49.7613 92.4072 46.8907 93.166 43.5277H99.0128C98.9805 44.2003 99.1957 44.6926 99.6343 45.002C100.046 45.3114 100.654 45.4674 101.249 45.4674C102.774 45.4674 103.904 44.9751 104.138 44.0954C104.876 41.2758 93.6584 43.2156 95.5499 36.1022C96.5939 32.1447 100.52 30.1511 105.177 30.1511C110.351 30.1511 112.009 32.7904 111.594 36.0484H105.799Z" fill="white"/>
<path d="M115.181 46.2529C113.513 46.2529 112.159 47.6062 112.159 49.2742C112.159 50.9423 113.513 52.2955 115.181 52.2955C116.935 52.2955 118.202 50.9154 118.202 49.2769C118.202 47.6035 116.849 46.2529 115.181 46.2529ZM115.181 51.8597C113.776 51.857 112.595 50.6625 112.595 49.2742C112.595 47.8456 113.752 46.6888 115.181 46.6888C116.609 46.6888 117.766 47.8456 117.766 49.2742C117.766 50.7001 116.615 51.8597 115.181 51.8597Z" fill="white"/>
<path d="M113.787 50.2643V48.5424H113.254V48.303H114.619V48.5424H114.083V50.2643H113.787Z" fill="white"/>
<path d="M115.945 49.8742L116.499 48.303H116.94V50.2643H116.642V48.5505H116.634L116.031 50.2643H115.818L115.197 48.5505H115.186V50.2643H114.949V48.303H115.377L115.945 49.8742Z" fill="white"/>
<path d="M52.6935 23.6538L52.9518 26.0859H52.9625L54.2567 23.6538H55.2872L54.5769 27.0141H53.8854L54.4962 24.3425H54.4881L53.0674 27.0141H52.5024L52.1768 24.3425H52.1688L51.6656 27.0141H50.9688L51.6737 23.6538H52.6935Z" fill="white"/>
<path d="M58.1473 26.2473C58.0693 26.433 57.9697 26.5863 57.8433 26.7101C57.7168 26.8338 57.5634 26.928 57.3832 26.9926C57.2002 27.0571 56.9796 27.0894 56.7186 27.0894C56.5544 27.0894 56.3957 27.0733 56.2369 27.0383C56.0782 27.0033 55.9383 26.9468 55.8145 26.8715C55.6907 26.7935 55.5912 26.6912 55.5132 26.5648C55.4351 26.4384 55.3975 26.2823 55.3975 26.0967C55.3975 26.0106 55.4055 25.9272 55.4217 25.8438C55.4378 25.7604 55.454 25.6797 55.4674 25.5963L55.8764 23.6538H56.6163L56.2073 25.5963C56.202 25.6259 56.1939 25.6555 56.1858 25.6931C56.1777 25.7281 56.1697 25.7684 56.1616 25.8088C56.1535 25.8492 56.1482 25.8868 56.1428 25.9245C56.1374 25.9595 56.1347 25.9918 56.1347 26.0213C56.1347 26.0617 56.1428 26.1101 56.1616 26.1612C56.1777 26.2151 56.21 26.2635 56.2585 26.3092C56.3042 26.355 56.3688 26.3926 56.4522 26.4249C56.5329 26.4572 56.6378 26.4706 56.767 26.4706C56.9177 26.4706 57.0388 26.4518 57.1329 26.4114C57.2271 26.3711 57.3024 26.3173 57.3616 26.2473C57.4208 26.1774 57.4639 26.0886 57.4988 25.9864C57.5311 25.8841 57.5634 25.7684 57.5903 25.642L58.0101 23.6511H58.75L58.341 25.6043C58.2872 25.8492 58.2253 26.0617 58.1473 26.2473Z" fill="white"/>
<path d="M60.1065 23.6538L59.5334 26.3926H61.1558L61.024 27.0141H58.6616L59.3639 23.6538H60.1065Z" fill="white"/>
<path d="M61.2095 24.2753L61.3413 23.6538H64.145L64.0131 24.2753H63.0068L62.4337 27.0141H61.6911L62.2642 24.2753H61.2095Z" fill="white"/>
<path d="M65.2046 23.6538L64.4943 27.0141H63.7544L64.4593 23.6538H65.2046Z" fill="white"/>
<path d="M67.1745 23.6538C67.344 23.6538 67.5001 23.67 67.6427 23.7022C67.7853 23.7345 67.9091 23.7883 68.0113 23.8637C68.1135 23.939 68.197 24.0385 68.2535 24.165C68.3127 24.2914 68.3396 24.4448 68.3396 24.6304C68.3396 24.8161 68.3046 24.9802 68.2346 25.1254C68.1647 25.2707 68.0678 25.3945 67.9467 25.494C67.8256 25.5936 67.6857 25.6716 67.5297 25.7254C67.3736 25.7792 67.2068 25.8061 67.0319 25.8061H66.1198L65.8669 27.0114H65.1323L65.8292 23.6511H67.1745V23.6538ZM66.9969 25.2358C67.1853 25.2358 67.3333 25.1873 67.4409 25.0932C67.5485 24.999 67.6023 24.8483 67.6023 24.6493C67.6023 24.5659 67.5862 24.4959 67.5566 24.4394C67.527 24.3856 67.4866 24.3426 67.4355 24.313C67.3844 24.2834 67.3306 24.2618 67.2687 24.2484C67.2068 24.2349 67.1449 24.2296 67.0777 24.2296H66.448L66.2409 25.2358H66.9969Z" fill="white"/>
<path d="M69.6714 23.6538L69.0983 26.3926H70.7208L70.5889 27.0141H68.2266L68.9288 23.6538H69.6714Z" fill="white"/>
<path d="M74.1512 23.6538L74.0247 24.2753H72.1978L72.0471 24.9963H73.7368L73.6158 25.5694H71.926L71.7512 26.3926H73.605L73.4732 27.0141H70.8848L71.587 23.6538H74.1512Z" fill="white"/>
<path d="M76.6832 23.6538L76.11 26.3926H77.7325L77.6007 27.0141H75.2383L75.9405 23.6538H76.6832Z" fill="white"/>
<path d="M79.3443 23.6538L78.634 27.0141H77.894L78.599 23.6538H79.3443Z" fill="white"/>
<path d="M80.0358 26.1988C80.0708 26.2795 80.1192 26.3414 80.1865 26.3898C80.2511 26.4355 80.3318 26.4705 80.4206 26.492C80.5121 26.5136 80.6116 26.5216 80.7166 26.5216C80.7919 26.5216 80.8672 26.5136 80.9426 26.4947C81.0179 26.4759 81.0852 26.449 81.1471 26.4113C81.209 26.3737 81.2574 26.3252 81.2977 26.266C81.3381 26.2069 81.3569 26.1342 81.3569 26.0508C81.3569 25.9701 81.3327 25.9028 81.2816 25.8517C81.2305 25.8006 81.1659 25.7549 81.0852 25.7172C81.0045 25.6795 80.913 25.6473 80.8134 25.6177C80.7112 25.5881 80.6089 25.5585 80.504 25.5289C80.3964 25.4966 80.2941 25.4589 80.1946 25.4159C80.095 25.3728 80.0036 25.3163 79.9228 25.2464C79.8421 25.1764 79.7775 25.093 79.7291 24.9935C79.6807 24.894 79.6565 24.7702 79.6565 24.6276C79.6565 24.4393 79.6968 24.2805 79.7748 24.1487C79.8529 24.0169 79.9551 23.9093 80.0816 23.8259C80.208 23.7425 80.3479 23.6806 80.5067 23.6429C80.6654 23.6053 80.8269 23.5837 80.9883 23.5837C81.1605 23.5837 81.322 23.6026 81.4753 23.6429C81.6287 23.6833 81.7605 23.7452 81.8762 23.8339C81.9919 23.9227 82.0807 24.033 82.148 24.1702C82.2152 24.3074 82.2502 24.4716 82.2502 24.6653H81.548C81.5507 24.5711 81.5372 24.4931 81.5076 24.4285C81.478 24.3639 81.435 24.3128 81.3812 24.2698C81.3273 24.2294 81.2601 24.1998 81.1847 24.1837C81.1094 24.1676 81.0287 24.1568 80.9453 24.1568C80.8753 24.1568 80.8054 24.1649 80.7354 24.1783C80.6654 24.1918 80.6009 24.216 80.5444 24.2483C80.4879 24.2805 80.4421 24.3236 80.4071 24.3774C80.3722 24.4312 80.356 24.4958 80.356 24.5738C80.356 24.6545 80.3856 24.7245 80.4475 24.7783C80.5094 24.8321 80.582 24.8778 80.6681 24.9155C80.7542 24.9505 80.843 24.98 80.9345 25.0016C81.026 25.0231 81.0986 25.0392 81.1551 25.05C81.287 25.085 81.4081 25.1253 81.5184 25.1711C81.6287 25.2168 81.7229 25.276 81.8036 25.3486C81.8843 25.4213 81.9462 25.5074 81.9892 25.6123C82.0323 25.7145 82.0538 25.8437 82.0538 25.9943C82.0538 26.1961 82.0135 26.3656 81.93 26.5082C81.8466 26.6481 81.739 26.7638 81.6099 26.8525C81.4807 26.9413 81.3327 27.0032 81.1686 27.0436C81.0045 27.0839 80.843 27.1028 80.6843 27.1028C80.2134 27.1028 79.8636 27.0059 79.6322 26.8149C79.4008 26.6239 79.2852 26.3225 79.2852 25.9109H79.9874C79.9874 26.0185 80.0009 26.1181 80.0358 26.1988Z" fill="white"/>
<path d="M82.5059 24.2753L82.6377 23.6538H85.4413L85.3095 24.2753H84.3032L83.7301 27.0141H82.9875L83.5606 24.2753H82.5059Z" fill="white"/>
<path d="M86.5015 23.6538L85.7912 27.0141H85.0513L85.7562 23.6538H86.5015Z" fill="white"/>
<path d="M87.8975 23.6538L88.8097 26.0456H88.8204L89.2994 23.6538H89.9774L89.2671 27.0141H88.5272L87.6043 24.6573H87.5962L87.1173 27.0141H86.4312L87.1361 23.6538H87.8975Z" fill="white"/>
<path d="M92.3882 26.6696C92.2779 26.8203 92.1487 26.9279 92.0034 26.9925C91.8555 27.057 91.7021 27.0893 91.5433 27.0893C91.0671 27.0893 90.6985 26.9629 90.4402 26.7073C90.1819 26.4544 90.0527 26.0858 90.0527 25.6069C90.0527 25.3352 90.0958 25.0742 90.1792 24.8294C90.2653 24.5846 90.3864 24.3693 90.5451 24.181C90.7039 23.9954 90.8976 23.8474 91.1236 23.7371C91.3523 23.6268 91.6052 23.573 91.8877 23.573C92.0842 23.573 92.2698 23.5972 92.442 23.6429C92.6142 23.6887 92.7649 23.7613 92.894 23.8582C93.0232 23.955 93.1254 24.0788 93.2008 24.2268C93.2761 24.3747 93.3138 24.555 93.3138 24.7621H92.5739C92.5631 24.555 92.5012 24.4097 92.3801 24.3236C92.2617 24.2375 92.0976 24.1945 91.8904 24.1945C91.7021 24.1945 91.538 24.2375 91.3981 24.3236C91.2581 24.4097 91.1451 24.52 91.0537 24.6572C90.9649 24.7944 90.8976 24.9451 90.8545 25.1146C90.8115 25.2814 90.79 25.4455 90.79 25.6069C90.79 25.7226 90.8034 25.8329 90.8357 25.9352C90.8653 26.0374 90.911 26.1315 90.9729 26.2096C91.0348 26.2903 91.1128 26.3522 91.2097 26.4006C91.3066 26.4463 91.4196 26.4705 91.5568 26.4705C91.6967 26.4705 91.8205 26.4517 91.9227 26.4167C92.025 26.3818 92.1138 26.3306 92.1864 26.2688C92.2591 26.2069 92.3209 26.1289 92.3694 26.0401C92.4178 25.9513 92.4582 25.8517 92.4904 25.7468H91.7129L91.8312 25.1953H93.2573L92.8725 27.0113H92.407V26.6669H92.3882V26.6696Z" fill="white"/>
<path d="M95.4289 26.1988C95.4639 26.2795 95.5123 26.3414 95.5796 26.3898C95.6441 26.4355 95.7249 26.4705 95.8137 26.492C95.9051 26.5136 96.0047 26.5216 96.1096 26.5216C96.185 26.5216 96.2603 26.5136 96.3356 26.4947C96.411 26.4759 96.4782 26.449 96.5401 26.4113C96.602 26.3737 96.6504 26.3252 96.6908 26.266C96.7311 26.2069 96.75 26.1342 96.75 26.0508C96.75 25.9701 96.7258 25.9028 96.6746 25.8517C96.6235 25.8006 96.559 25.7549 96.4782 25.7172C96.3975 25.6795 96.306 25.6473 96.2065 25.6177C96.1042 25.5881 96.002 25.5585 95.8971 25.5289C95.7894 25.4966 95.6872 25.4589 95.5849 25.4159C95.4827 25.3728 95.3939 25.3163 95.3159 25.2464C95.2352 25.1764 95.1706 25.093 95.1222 24.9935C95.0737 24.894 95.0495 24.7702 95.0495 24.6276C95.0495 24.4393 95.0899 24.2805 95.1679 24.1487C95.2459 24.0169 95.3482 23.9093 95.4746 23.8259C95.6011 23.7425 95.741 23.6806 95.8998 23.6429C96.0585 23.6053 96.2199 23.5837 96.3814 23.5837C96.5536 23.5837 96.7177 23.6026 96.8684 23.6429C97.019 23.6833 97.1536 23.7452 97.2693 23.8339C97.385 23.9227 97.4738 24.033 97.541 24.1702C97.6083 24.3074 97.6433 24.4716 97.6433 24.6653H96.941C96.9437 24.5711 96.9303 24.4931 96.9007 24.4285C96.8711 24.3639 96.828 24.3128 96.7742 24.2698C96.7204 24.2294 96.6531 24.1998 96.5778 24.1837C96.5024 24.1676 96.4217 24.1568 96.3383 24.1568C96.2684 24.1568 96.1984 24.1649 96.1285 24.1783C96.0585 24.1918 95.9939 24.216 95.9374 24.2483C95.8809 24.2805 95.8352 24.3236 95.8002 24.3774C95.7652 24.4312 95.7491 24.4958 95.7491 24.5738C95.7491 24.6545 95.7787 24.7245 95.8406 24.7783C95.9024 24.8321 95.9751 24.8778 96.0612 24.9155C96.1473 24.9505 96.2361 24.98 96.3276 25.0016C96.419 25.0231 96.4917 25.0392 96.5482 25.05C96.68 25.085 96.8011 25.1253 96.9114 25.1711C97.0217 25.2168 97.1159 25.276 97.1966 25.3486C97.2773 25.4213 97.3392 25.5074 97.3823 25.6123C97.4253 25.7172 97.4495 25.8437 97.4495 25.9943C97.4495 26.1961 97.4065 26.3656 97.3258 26.5082C97.2451 26.6508 97.1347 26.7638 97.0056 26.8525C96.8764 26.9413 96.7285 27.0032 96.567 27.0436C96.4029 27.0839 96.2415 27.1028 96.0827 27.1028C95.6119 27.1028 95.2621 27.0059 95.0307 26.8149C94.7993 26.6239 94.6836 26.3225 94.6836 25.9109H95.3858C95.3805 26.0185 95.3939 26.1181 95.4289 26.1988Z" fill="white"/>
<path d="M100.963 23.6538L100.837 24.2753H99.0101L98.8594 24.9963H100.549L100.425 25.5694H98.7356L98.5607 26.3926H100.415L100.283 27.0141H97.6943L98.3966 23.6538H100.963Z" fill="white"/>
<path d="M103.108 23.6537C103.259 23.651 103.396 23.6644 103.52 23.694C103.643 23.7236 103.748 23.7747 103.837 23.8447C103.926 23.9146 103.993 24.0061 104.039 24.1191C104.087 24.2321 104.109 24.3693 104.109 24.5334C104.109 24.6464 104.09 24.754 104.052 24.8589C104.015 24.9639 103.961 25.0553 103.894 25.1334C103.824 25.2141 103.743 25.2786 103.649 25.3325C103.555 25.3863 103.452 25.4212 103.339 25.4347V25.4454C103.476 25.4885 103.571 25.5665 103.616 25.6741C103.662 25.7817 103.686 25.9028 103.686 26.04C103.686 26.1154 103.684 26.2068 103.676 26.3091C103.668 26.414 103.665 26.5189 103.665 26.6211C103.665 26.6965 103.668 26.7691 103.673 26.8364C103.678 26.9036 103.692 26.9628 103.711 27.0139H102.989C102.979 26.9736 102.973 26.9359 102.965 26.8983C102.96 26.8633 102.955 26.8256 102.955 26.7879C102.955 26.675 102.96 26.562 102.973 26.4463C102.987 26.3306 102.992 26.2176 102.992 26.1046C102.992 26.0239 102.981 25.9566 102.957 25.9055C102.933 25.8544 102.901 25.8113 102.858 25.7817C102.815 25.7495 102.763 25.7279 102.704 25.7172C102.645 25.7064 102.578 25.701 102.508 25.701H101.811L101.534 27.0139H100.799L101.502 23.6537H103.108ZM102.61 25.1737C102.71 25.1737 102.807 25.163 102.898 25.1441C102.989 25.1226 103.07 25.093 103.14 25.05C103.21 25.0069 103.267 24.9531 103.31 24.8859C103.353 24.8186 103.374 24.7379 103.374 24.6437C103.374 24.5522 103.358 24.4796 103.329 24.4258C103.299 24.372 103.259 24.3289 103.207 24.302C103.156 24.2751 103.1 24.2563 103.033 24.2455C102.965 24.2348 102.898 24.2321 102.825 24.2321H102.123L101.927 25.1791H102.61V25.1737Z" fill="white"/>
<path d="M104.819 27.0141L104.435 23.6538H105.174L105.395 26.1774H105.406L106.681 23.6538H107.448L105.656 27.0141H104.819Z" fill="white"/>
<path d="M108.462 23.6538L107.752 27.0141H107.012L107.717 23.6538H108.462Z" fill="white"/>
<path d="M110.827 24.3532C110.717 24.2483 110.572 24.1945 110.391 24.1945C110.203 24.1945 110.039 24.2375 109.899 24.3236C109.759 24.4097 109.646 24.52 109.555 24.6572C109.466 24.7944 109.399 24.9451 109.356 25.1146C109.312 25.2814 109.291 25.4455 109.291 25.6069C109.291 25.7226 109.304 25.8329 109.337 25.9352C109.366 26.0374 109.412 26.1316 109.474 26.2096C109.536 26.2903 109.614 26.3522 109.711 26.4006C109.808 26.4463 109.921 26.4705 110.058 26.4705C110.157 26.4705 110.254 26.4517 110.343 26.4167C110.432 26.3818 110.512 26.3333 110.58 26.2715C110.647 26.2096 110.706 26.1396 110.755 26.0562C110.8 25.9755 110.833 25.8894 110.849 25.8033H111.589C111.513 26.0401 111.425 26.2392 111.322 26.4006C111.22 26.562 111.107 26.6965 110.978 26.7988C110.852 26.901 110.709 26.9736 110.556 27.0194C110.402 27.0651 110.233 27.0866 110.05 27.0866C109.573 27.0866 109.205 26.9602 108.947 26.7046C108.688 26.4517 108.559 26.0831 108.559 25.6042C108.559 25.3325 108.602 25.0715 108.686 24.8267C108.772 24.5819 108.893 24.3667 109.051 24.1783C109.21 23.9927 109.404 23.8447 109.63 23.7344C109.859 23.6241 110.112 23.5703 110.394 23.5703C110.588 23.5703 110.768 23.5972 110.935 23.651C111.102 23.7048 111.244 23.7829 111.365 23.8878C111.486 23.9927 111.581 24.1218 111.645 24.2779C111.71 24.4339 111.742 24.6142 111.739 24.816H110.999C110.994 24.6142 110.94 24.4581 110.827 24.3532Z" fill="white"/>
<path d="M115.052 23.6538L114.925 24.2753H113.098L112.948 24.9963H114.637L114.514 25.5694H112.824L112.649 26.3926H114.503L114.371 27.0141H111.783L112.485 23.6538H115.052Z" fill="white"/>
<path d="M43.9166 14.6113V16.2256H127.353V57.3857H13.4532V52.2928H11.8389V58.9999H128.968V14.6113H43.9166Z" fill="white"/>
<path fill-rule="evenodd" clip-rule="evenodd" d="M138.223 50.3263H136.286V51.0931H138.064V51.7388H136.286V52.6804H138.307V53.3288H135.541V49.6833H138.223V50.3263Z" fill="white"/>
<path fill-rule="evenodd" clip-rule="evenodd" d="M140.669 52.336L141.035 52.6804C140.898 52.753 140.75 52.7772 140.623 52.7772C140.212 52.7772 139.633 52.5243 139.633 51.5047C139.633 50.485 140.212 50.2321 140.623 50.2321C141.035 50.2321 141.613 50.485 141.613 51.5047C141.613 51.8463 141.546 52.0992 141.447 52.2876L141.062 51.9271L140.669 52.336ZM142.391 53.1781L141.993 52.8041C142.216 52.5189 142.375 52.1046 142.375 51.5047C142.375 49.7936 141.105 49.5864 140.623 49.5864C140.142 49.5864 138.872 49.7936 138.872 51.5047C138.872 53.2157 140.142 53.4229 140.623 53.4229C140.836 53.4229 141.212 53.3826 141.557 53.1781L141.99 53.5897L142.391 53.1781Z" fill="white"/>
<path fill-rule="evenodd" clip-rule="evenodd" d="M145.959 52.0536C145.959 53.0113 145.38 53.423 144.46 53.423C144.127 53.423 143.629 53.3423 143.303 52.9818C143.107 52.7585 143.029 52.4625 143.018 52.0993V49.6833H143.796V52.0482C143.796 52.5567 144.089 52.78 144.444 52.78C144.969 52.78 145.181 52.5271 145.181 52.0859V49.686H145.959V52.0536Z" fill="white"/>
<path fill-rule="evenodd" clip-rule="evenodd" d="M147.998 50.5039H148.009L148.461 51.946H147.53L147.998 50.5039ZM147.328 52.5755H148.673L148.908 53.3288H149.736L148.453 49.6833H147.573L146.273 53.3288H147.075L147.328 52.5755Z" fill="white"/>
<path fill-rule="evenodd" clip-rule="evenodd" d="M151.09 52.667H152.904V53.3288H150.329V49.6833H151.09V52.667Z" fill="white"/>
<path fill-rule="evenodd" clip-rule="evenodd" d="M155.79 51.6931V53.3288H155.029V49.6833H155.79V51.0635H157.211V49.6833H157.972V53.3288H157.211V51.6931H155.79Z" fill="white"/>
<path fill-rule="evenodd" clip-rule="evenodd" d="M159.423 51.5047C159.423 50.485 160.004 50.2321 160.413 50.2321C160.825 50.2321 161.403 50.485 161.403 51.5047C161.403 52.5243 160.825 52.7772 160.413 52.7772C160.004 52.7772 159.423 52.5243 159.423 51.5047ZM158.664 51.5047C158.664 53.2158 159.934 53.4229 160.413 53.4229C160.897 53.4229 162.167 53.2158 162.167 51.5047C162.167 49.7936 160.897 49.5864 160.413 49.5864C159.934 49.5864 158.664 49.7936 158.664 51.5047Z" fill="white"/>
<path fill-rule="evenodd" clip-rule="evenodd" d="M165.802 52.0536C165.802 53.0113 165.223 53.423 164.303 53.423C163.967 53.423 163.472 53.3423 163.146 52.9818C162.947 52.7585 162.872 52.4625 162.864 52.0993V49.6833H163.639V52.0482C163.639 52.5567 163.935 52.78 164.29 52.78C164.812 52.78 165.024 52.5271 165.024 52.0859V49.686H165.802V52.0536Z" fill="white"/>
<path fill-rule="evenodd" clip-rule="evenodd" d="M167.196 52.2042C167.204 52.4059 167.306 52.7934 167.968 52.7934C168.329 52.7934 168.73 52.7073 168.73 52.3198C168.73 52.0374 168.455 51.9593 168.07 51.8679L167.68 51.7764C167.088 51.6392 166.521 51.51 166.521 50.7083C166.521 50.3021 166.741 49.5864 167.922 49.5864C169.039 49.5864 169.34 50.3155 169.346 50.7648H168.614C168.595 50.6034 168.533 50.216 167.869 50.216C167.581 50.216 167.234 50.3236 167.234 50.6518C167.234 50.937 167.468 50.9962 167.618 51.0312L168.509 51.2491C169.007 51.3701 169.461 51.5746 169.461 52.2284C169.461 53.3261 168.345 53.4202 168.025 53.4202C166.695 53.4202 166.467 52.6535 166.467 52.2015H167.196V52.2042Z" fill="white"/>
<path fill-rule="evenodd" clip-rule="evenodd" d="M170.847 53.3288H170.085V49.6833H170.847V53.3288Z" fill="white"/>
<path fill-rule="evenodd" clip-rule="evenodd" d="M173.888 49.6833H174.598V53.3288H173.836L172.351 50.7272H172.338V53.3288H171.627V49.6833H172.429L173.877 52.2204H173.888V49.6833Z" fill="white"/>
<path fill-rule="evenodd" clip-rule="evenodd" d="M177.146 51.3619H178.669V53.3258H178.163L178.088 52.8685C177.894 53.0891 177.617 53.42 176.949 53.42C176.072 53.42 175.276 52.7905 175.276 51.5125C175.276 50.5198 175.83 49.5781 177.057 49.5835C178.176 49.5835 178.618 50.3072 178.655 50.813H177.894C177.894 50.6704 177.633 50.2131 177.097 50.2131C176.554 50.2131 176.051 50.5897 176.051 51.5206C176.051 52.516 176.594 52.7743 177.111 52.7743C177.278 52.7743 177.837 52.7097 177.993 51.9726H177.146V51.3619Z" fill="white"/>
<path fill-rule="evenodd" clip-rule="evenodd" d="M136.141 57.0413C136.141 56.0216 136.719 55.766 137.131 55.766C137.543 55.766 138.121 56.0216 138.121 57.0413C138.121 58.0609 137.543 58.3165 137.131 58.3165C136.719 58.3165 136.141 58.0609 136.141 57.0413ZM135.379 57.0413C135.379 58.7524 136.649 58.9622 137.131 58.9622C137.613 58.9622 138.883 58.7524 138.883 57.0413C138.883 55.3302 137.613 55.123 137.131 55.123C136.649 55.123 135.379 55.3329 135.379 57.0413Z" fill="white"/>
<path fill-rule="evenodd" clip-rule="evenodd" d="M140.968 56.9203V55.8495H141.573C142.044 55.8495 142.243 55.9975 142.243 56.3526C142.243 56.514 142.243 56.9203 141.673 56.9203H140.968ZM140.968 57.5498H141.84C142.819 57.5498 143.002 56.7158 143.002 56.3876C143.002 55.672 142.577 55.22 141.869 55.22H140.204V58.8654H140.965V57.5498H140.968Z" fill="white"/>
<path fill-rule="evenodd" clip-rule="evenodd" d="M145.068 56.9203V55.8495H145.671C146.144 55.8495 146.341 55.9975 146.341 56.3526C146.341 56.514 146.341 56.9203 145.773 56.9203H145.068ZM145.068 57.5498H145.94C146.919 57.5498 147.102 56.7158 147.102 56.3876C147.102 55.672 146.677 55.22 145.969 55.22H144.304V58.8654H145.065V57.5498H145.068Z" fill="white"/>
<path fill-rule="evenodd" clip-rule="evenodd" d="M149.01 57.0413C149.01 56.0216 149.588 55.766 150 55.766C150.409 55.766 150.99 56.0216 150.99 57.0413C150.99 58.0609 150.412 58.3165 150 58.3165C149.586 58.3165 149.01 58.0609 149.01 57.0413ZM148.249 57.0413C148.249 58.7524 149.516 58.9622 150 58.9622C150.482 58.9622 151.749 58.7524 151.749 57.0413C151.749 55.3302 150.479 55.123 150 55.123C149.516 55.123 148.249 55.3329 148.249 57.0413Z" fill="white"/>
<path fill-rule="evenodd" clip-rule="evenodd" d="M153.821 56.8234V55.8468H154.768C155.215 55.8468 155.301 56.132 155.301 56.3257C155.301 56.6862 155.11 56.8234 154.711 56.8234H153.821ZM153.073 58.8654H153.821V57.4395H154.606C155.171 57.4395 155.201 57.6332 155.201 58.1283C155.201 58.5022 155.231 58.6906 155.282 58.8654H156.124V58.7659C155.963 58.7067 155.963 58.5722 155.963 58.0422C155.963 57.3588 155.801 57.2485 155.5 57.1167C155.86 56.9956 156.062 56.6513 156.062 56.2504C156.062 55.9356 155.884 55.22 154.916 55.22H153.073V58.8654Z" fill="white"/>
<path fill-rule="evenodd" clip-rule="evenodd" d="M158.9 58.8654H158.139V55.8657H157.039V55.22H160.004V55.8657H158.9V58.8654Z" fill="white"/>
<path fill-rule="evenodd" clip-rule="evenodd" d="M164.091 57.5902C164.091 58.548 163.513 58.9623 162.592 58.9623C162.259 58.9623 161.761 58.8789 161.435 58.5184C161.236 58.2951 161.161 58.0018 161.153 57.6359V55.22H161.928V57.5848C161.928 58.0933 162.224 58.3166 162.579 58.3166C163.101 58.3166 163.313 58.061 163.313 57.6198V55.22H164.091V57.5902Z" fill="white"/>
<path fill-rule="evenodd" clip-rule="evenodd" d="M167.774 55.22H168.487V58.8654H167.723L166.235 56.2638H166.227V58.8654H165.514V55.22H166.319L167.766 57.757H167.774V55.22Z" fill="white"/>
<path fill-rule="evenodd" clip-rule="evenodd" d="M170.634 58.8654H169.87V55.22H170.634V58.8654Z" fill="white"/>
<path fill-rule="evenodd" clip-rule="evenodd" d="M173.608 58.8654H172.846V55.8657H171.746V55.22H174.711V55.8657H173.608V58.8654Z" fill="white"/>
<path fill-rule="evenodd" clip-rule="evenodd" d="M177.587 58.8654H176.826V57.488L175.566 55.22H176.465L177.221 56.8046L177.945 55.22H178.806L177.587 57.4987V58.8654Z" fill="white"/>
<path fill-rule="evenodd" clip-rule="evenodd" d="M157.09 11.7112L132.546 23.7991V29.4757H135.293V46.5085H178.701V29.4757H182V23.7991L157.09 11.7112ZM173.39 41.378H140.604V25.8141L157.09 17.3906L173.39 25.8141V41.378Z" fill="white"/>
<path fill-rule="evenodd" clip-rule="evenodd" d="M164.597 30.7618H149.397V25.2681H164.597V30.7618Z" fill="white"/>
<path fill-rule="evenodd" clip-rule="evenodd" d="M164.597 38.6393H149.397V33.1428H164.597V38.6393Z" fill="white"/>
</svg>
