<svg width="1440" height="33" viewBox="0 0 1440 33" fill="none" xmlns="http://www.w3.org/2000/svg">

<path d="M0 11.1949C19.4536 11.1949 19.4536 11.738 38.918 11.738C58.3825 11.738 58.3825 14.434 77.8361 14.434C97.2897 14.434 97.2897 12.9033 116.754 12.9033C136.208 12.9033 136.208 11.1258 155.672 11.1258C175.126 11.1258 175.126 10.2666 194.59 10.2666C214.044 10.2666 214.044 14.2562 233.508 14.2562C252.973 14.2562 252.973 11.0073 272.426 11.0073C291.891 11.0073 291.891 10 311.344 10C330.798 10 330.809 10.237 350.262 10.237C369.727 10.237 369.727 11.8763 389.18 11.8763C408.634 11.8763 408.634 12.5577 428.098 12.5577C447.552 12.5577 447.552 12.5972 467.016 12.5972C486.47 12.5972 486.47 13.5551 505.934 13.5551C525.388 13.5551 525.388 12.6169 544.842 12.6169C564.295 12.6169 564.295 11.6887 583.76 11.6887C603.224 11.6887 603.224 14.2167 622.678 14.2167C642.131 14.2167 642.131 14.2167 661.596 14.2167C681.049 14.2167 681.049 11.0073 700.514 11.0073C719.967 11.0073 719.967 11.4418 739.432 11.4418C758.885 11.4418 758.885 10.711 778.35 10.711C797.803 10.711 797.803 11.501 817.268 11.501C836.732 11.501 836.732 14.0982 856.186 14.0982C875.64 14.0982 875.64 12.3306 895.104 12.3306C914.568 12.3306 914.568 12.933 934.022 12.933C953.486 12.933 953.486 13.8119 972.94 13.8119C992.405 13.8119 992.405 12.4886 1011.86 12.4886C1031.32 12.4886 1031.32 10.5431 1050.78 10.5431C1070.24 10.5431 1070.24 13.3378 1089.69 13.3378C1109.16 13.3378 1109.16 10.9579 1128.61 10.9579C1148.07 10.9579 1148.07 13.1008 1167.53 13.1008C1186.98 13.1008 1186.98 11.4418 1206.45 11.4418C1225.91 11.4418 1225.91 12.2219 1245.37 12.2219C1264.83 12.2219 1264.83 13.2983 1284.28 13.2983C1303.75 13.2983 1303.75 13.17 1323.21 13.17C1342.68 13.17 1342.68 12.8935 1362.14 12.8935C1381.61 12.8935 1381.61 11.7973 1401.07 11.7973C1420.54 11.7973 1420.54 12.0837 1440 12.0837" stroke="#124A83" stroke-width="20" stroke-miterlimit="10"/>
</svg>
