<?xml version="1.0" standalone="no"?>
<!DOCTYPE svg PUBLIC "-//W3C//DTD SVG 20010904//EN"
 "http://www.w3.org/TR/2001/REC-SVG-20010904/DTD/svg10.dtd">
<svg version="1.0" xmlns="http://www.w3.org/2000/svg"
 width="600.000000pt" height="600.000000pt" viewBox="0 0 600.000000 600.000000"
 preserveAspectRatio="xMidYMid meet">
<metadata>
Created by potrace 1.11, written by Peter Selinger 2001-2013
</metadata>
<g transform="translate(0.000000,600.000000) scale(0.100000,-0.100000)"
fill="#000000" stroke="none">
<path d="M2849 5596 c-2 -2 -38 -7 -80 -10 -42 -4 -87 -9 -100 -11 -13 -3 -59
-12 -102 -20 -157 -30 -347 -87 -454 -136 -24 -10 -45 -19 -48 -19 -7 0 -188
-90 -240 -120 -116 -65 -311 -204 -413 -293 -118 -103 -288 -286 -383 -412
-122 -160 -278 -433 -352 -612 -239 -585 -263 -1220 -68 -1784 33 -96 113
-284 127 -298 12 -13 239 -25 464 -26 l205 0 0 618 c0 341 -3 621 -6 623 -4 2
-65 6 -136 10 -72 3 -161 7 -199 9 -38 2 -84 4 -102 4 -41 1 -36 9 36 59 31
21 160 112 287 200 l229 162 2 407 c0 225 2 413 2 418 1 6 104 10 286 10 246
0 285 -2 288 -15 2 -8 4 -93 3 -187 0 -95 2 -173 5 -173 5 0 97 61 145 96 24
17 424 293 783 541 175 121 257 172 265 165 7 -5 156 -121 332 -258 176 -137
327 -254 335 -261 8 -7 89 -70 180 -140 382 -297 665 -518 670 -523 3 -3 32
-25 65 -49 33 -25 62 -47 65 -51 6 -6 357 -280 488 -380 l86 -65 -187 -3 -187
-2 -122 92 c-68 51 -130 98 -138 105 -8 7 -163 125 -345 263 -181 138 -343
261 -359 273 -15 12 -110 84 -210 160 -99 75 -224 170 -276 210 -52 40 -179
137 -281 214 l-186 142 -91 -65 c-51 -36 -92 -68 -92 -72 1 -4 226 -176 501
-382 617 -463 1092 -820 1098 -826 2 -2 4 -292 4 -644 0 -353 3 -643 7 -645 4
-3 25 -7 46 -11 94 -15 360 -87 479 -129 175 -63 167 -62 187 -23 120 227 152
298 205 453 56 164 101 382 118 570 6 69 7 345 1 390 -2 17 -7 61 -11 100 -6
60 -17 128 -40 250 -17 90 -85 317 -125 415 -341 854 -1033 1462 -1865 1639
-49 10 -112 22 -140 25 -27 4 -66 9 -85 12 -41 7 -565 16 -571 10z"/>
<path d="M2607 3063 c-2 -5 -3 -262 -3 -573 l1 -565 35 1 c43 2 229 14 290 19
25 2 106 7 180 11 74 3 158 8 185 9 28 2 80 4 117 4 l67 1 0 550 1 550 -435 0
c-238 0 -435 -3 -438 -7z"/>
<path d="M69 1674 c52 -98 170 -287 190 -304 3 -3 30 -33 60 -68 45 -53 80
-88 175 -177 58 -55 216 -159 316 -210 154 -78 421 -161 581 -180 24 -3 55 -7
69 -10 142 -28 646 -28 905 0 22 2 60 6 85 9 63 7 220 26 250 31 14 2 75 11
135 20 61 9 151 23 200 31 50 8 99 17 110 19 11 1 58 10 105 18 47 9 101 18
120 21 19 3 60 10 90 16 30 6 69 13 85 16 17 2 129 22 250 44 121 21 238 41
260 44 22 4 47 8 55 11 8 2 38 6 65 10 28 3 57 8 65 10 8 2 38 7 65 10 89 11
118 15 144 19 14 3 51 7 81 11 30 3 71 8 90 11 70 8 117 13 195 19 44 3 105 8
135 11 83 7 466 7 535 -1 237 -24 367 -46 488 -82 17 -4 -21 33 -96 98 -119
101 -375 250 -532 308 -33 13 -69 27 -80 31 -49 21 -284 88 -365 104 -178 35
-274 50 -390 61 -36 4 -76 9 -90 11 -156 26 -1024 26 -1390 -1 -25 -1 -94 -6
-155 -10 -60 -3 -135 -8 -165 -10 -30 -2 -99 -7 -152 -10 -53 -3 -121 -7 -150
-10 -118 -9 -263 -18 -518 -31 -307 -16 -929 -9 -1060 11 -14 2 -50 7 -80 10
-30 3 -66 8 -80 10 -14 3 -41 7 -60 10 -19 3 -57 10 -85 15 -27 6 -59 12 -70
14 -121 23 -425 129 -425 148 0 4 -5 8 -11 8 -6 0 17 -52 50 -116z m731 -372
c186 -78 471 -168 630 -198 14 -3 57 -11 95 -19 72 -14 102 -18 240 -36 44 -5
94 -11 110 -14 63 -8 316 -19 458 -18 81 0 145 -2 142 -5 -12 -13 -218 -74
-290 -86 -16 -3 -55 -10 -85 -16 -122 -24 -366 -32 -535 -17 -478 42 -924 247
-1102 509 -65 94 -65 94 94 14 81 -41 191 -92 243 -114z"/>
<path d="M4517 884 c-2 -2 -35 -6 -73 -9 -38 -3 -82 -7 -99 -10 -16 -2 -57 -7
-90 -10 -33 -4 -67 -8 -75 -11 -8 -2 -35 -6 -60 -9 -57 -7 -324 -54 -515 -90
-103 -20 -308 -58 -355 -66 -30 -5 -66 -11 -80 -14 -40 -8 -280 -43 -340 -50
-30 -3 -66 -8 -80 -10 -43 -6 -142 -15 -234 -20 -49 -3 -91 -7 -93 -8 -5 -5
249 -86 322 -102 39 -9 88 -20 110 -25 131 -31 320 -45 585 -45 198 0 283 4
445 20 76 8 317 40 375 51 14 2 41 7 60 10 63 10 74 12 165 29 50 9 101 18
115 20 14 2 48 8 75 14 158 33 730 139 786 146 19 2 65 9 103 16 l70 11 -60
25 c-123 50 -332 105 -455 119 -30 3 -65 8 -79 11 -28 6 -517 13 -523 7z"/>
</g>
</svg>
