<svg focusable="false" aria-hidden="true" width="21" height="21" viewBox="0 0 21 21" fill="none" xmlns="http://www.w3.org/2000/svg">
<path d="M10.5 0C11.872 0 12.81 0.00699991 13.314 0.0210001C13.734 0.0210001 14.238 0.035 14.826 0.063C15.806 0.105 16.653 0.265999 17.367 0.546C18.081 0.826002 18.7075 1.232 19.2465 1.764C19.7855 2.296 20.1915 2.919 20.4645 3.633C20.7375 4.347 20.895 5.19399 20.937 6.174C20.965 6.776 20.979 7.28 20.979 7.686C20.993 8.218 21 9.16299 21 10.521C21 11.879 20.993 12.81 20.979 13.314C20.979 13.734 20.965 14.238 20.937 14.826C20.895 15.806 20.7375 16.653 20.4645 17.367C20.1915 18.081 19.7855 18.7075 19.2465 19.2465C18.7075 19.7855 18.081 20.1915 17.367 20.4645C16.653 20.7375 15.806 20.895 14.826 20.937C14.224 20.965 13.72 20.979 13.314 20.979C12.782 20.993 11.837 21 10.479 21C9.12099 21 8.19 20.993 7.686 20.979C7.266 20.979 6.762 20.965 6.174 20.937C5.19399 20.895 4.347 20.7375 3.633 20.4645C2.919 20.1915 2.2925 19.7855 1.7535 19.2465C1.2145 18.7075 0.808501 18.081 0.5355 17.367C0.262499 16.653 0.105 15.806 0.063 14.826C0.035 14.224 0.0210001 13.72 0.0210001 13.314C0.00699991 12.782 0 11.837 0 10.479C0 9.12099 0.00699991 8.19 0.0210001 7.686C0.0210001 7.266 0.035 6.762 0.063 6.174C0.105 5.19399 0.262499 4.347 0.5355 3.633C0.808501 2.919 1.2145 2.2925 1.7535 1.7535C2.2925 1.2145 2.919 0.808501 3.633 0.5355C4.347 0.262499 5.19399 0.105 6.174 0.063C6.776 0.035 7.28 0.0210001 7.686 0.0210001C8.218 0.00699991 9.15599 0 10.5 0ZM10.5 5.25C9.54799 5.25 8.6695 5.4845 7.8645 5.9535C7.0595 6.4225 6.4225 7.0595 5.9535 7.8645C5.4845 8.6695 5.25 9.54799 5.25 10.5C5.25 11.452 5.4845 12.3305 5.9535 13.1355C6.4225 13.9405 7.0595 14.5775 7.8645 15.0465C8.6695 15.5155 9.54799 15.75 10.5 15.75C11.452 15.75 12.3305 15.5155 13.1355 15.0465C13.9405 14.5775 14.5775 13.9405 15.0465 13.1355C15.5155 12.3305 15.75 11.452 15.75 10.5C15.75 9.54799 15.5155 8.6695 15.0465 7.8645C14.5775 7.0595 13.9405 6.4225 13.1355 5.9535C12.3305 5.4845 11.452 5.25 10.5 5.25ZM17.325 4.977C17.325 4.627 17.1955 4.3225 16.9365 4.0635C16.6775 3.8045 16.3695 3.675 16.0125 3.675C15.6555 3.675 15.3475 3.8045 15.0885 4.0635C14.8295 4.3225 14.7 4.6305 14.7 4.9875C14.7 5.3445 14.8295 5.6525 15.0885 5.9115C15.3475 6.1705 15.6555 6.3 16.0125 6.3C16.3695 6.3 16.6775 6.1705 16.9365 5.9115C17.1955 5.6525 17.325 5.341 17.325 4.977ZM10.5 7.35C11.074 7.35 11.6025 7.49 12.0855 7.77C12.5685 8.05 12.95 8.4315 13.23 8.9145C13.51 9.3975 13.65 9.926 13.65 10.5C13.65 11.074 13.51 11.6025 13.23 12.0855C12.95 12.5685 12.5685 12.95 12.0855 13.23C11.6025 13.51 11.074 13.65 10.5 13.65C9.926 13.65 9.3975 13.51 8.9145 13.23C8.4315 12.95 8.05 12.5685 7.77 12.0855C7.49 11.6025 7.35 11.074 7.35 10.5C7.35 9.926 7.49 9.3975 7.77 8.9145C8.05 8.4315 8.4315 8.05 8.9145 7.77C9.3975 7.49 9.926 7.35 10.5 7.35Z" />
</svg>
