<svg focusable="false" aria-hidden="true" width="37" height="36" viewBox="0 0 37 36" fill="none" xmlns="http://www.w3.org/2000/svg">
<path d="M18.5 35.9578C16.0269 35.9578 13.6944 35.4801 11.5023 34.5246C9.31029 33.5972 7.39931 32.3185 5.76932 30.6885C4.13934 29.0585 2.86066 27.1476 1.93326 24.9555C0.977747 22.7916 0.5 20.459 0.5 17.9578C0.5 15.4848 0.977747 13.1522 1.93326 10.9602C2.86066 8.79624 4.13934 6.89931 5.76932 5.26932C7.39931 3.63934 9.31029 2.34661 11.5023 1.3911C13.6944 0.463696 16.0269 0 18.5 0C20.9731 0 23.3056 0.463696 25.4977 1.3911C27.6897 2.34661 29.6007 3.63934 31.2307 5.26932C32.8607 6.89931 34.1393 8.79624 35.0667 10.9602C36.0223 13.1522 36.5 15.4848 36.5 17.9578C36.5 20.459 36.0223 22.7916 35.0667 24.9555C34.1393 27.1476 32.8607 29.0585 31.2307 30.6885C29.6007 32.3185 27.6897 33.5972 25.4977 34.5246C23.3056 35.4801 20.9731 35.9578 18.5 35.9578ZM18.5 32.3747C20.4953 32.3747 22.3642 31.9953 24.1066 31.2365C25.849 30.4777 27.3735 29.445 28.6803 28.1382C29.9871 26.8314 31.0199 25.3068 31.7787 23.5644C32.5094 21.822 32.8747 19.9532 32.8747 17.9578C32.8747 15.9906 32.5094 14.1218 31.7787 12.3513C31.0199 10.6089 29.9871 9.09134 28.6803 7.79859C27.3735 6.50585 25.849 5.4801 24.1066 4.72131C22.3642 3.96253 20.4953 3.58314 18.5 3.58314C16.5047 3.58314 14.6358 3.96253 12.8934 4.72131C11.151 5.4801 9.62647 6.50585 8.31967 7.79859C7.01287 9.09134 5.9801 10.6089 5.22131 12.3513C4.49063 14.1218 4.12529 15.9906 4.12529 17.9578C4.12529 19.9532 4.49063 21.822 5.22131 23.5644C5.9801 25.3068 7.01287 26.8314 8.31967 28.1382C9.62647 29.445 11.151 30.4777 12.8934 31.2365C14.6358 31.9953 16.5047 32.3747 18.5 32.3747ZM18.5 14.3747C19.0059 14.3747 19.4344 14.5503 19.7857 14.9016C20.137 15.2529 20.3126 15.6815 20.3126 16.1874V25.1663C20.3126 25.6721 20.137 26.1007 19.7857 26.452C19.4344 26.8033 19.0059 26.9789 18.5 26.9789C17.9941 26.9789 17.5656 26.8033 17.2143 26.452C16.863 26.1007 16.6874 25.6721 16.6874 25.1663V16.1874C16.6874 15.6815 16.863 15.2529 17.2143 14.9016C17.5656 14.5503 17.9941 14.3747 18.5 14.3747ZM18.5 12.5621C17.9941 12.5621 17.5656 12.3864 17.2143 12.0351C16.863 11.6838 16.6874 11.2693 16.6874 10.7916C16.6874 10.2857 16.863 9.85714 17.2143 9.50585C17.5656 9.15456 17.9941 8.97892 18.5 8.97892C19.0059 8.97892 19.4344 9.15456 19.7857 9.50585C20.137 9.85714 20.3126 10.2857 20.3126 10.7916C20.3126 11.2693 20.137 11.6838 19.7857 12.0351C19.4344 12.3864 19.0059 12.5621 18.5 12.5621Z" />
</svg>
