<svg focusable="false" aria-hidden="true" width="21" height="21" viewBox="0 0 21 21" fill="none" xmlns="http://www.w3.org/2000/svg">
<path d="M10.5 0C8.59599 0 6.83201 0.475995 5.208 1.428C3.62599 2.366 2.366 3.62599 1.428 5.208C0.475995 6.83201 0 8.59599 0 10.5C0 12.222 0.391996 13.839 1.176 15.351C1.946 16.807 3.00299 18.025 4.347 19.005C5.69101 19.985 7.19599 20.608 8.862 20.874V13.524H6.195V10.5H8.862V8.19C8.862 6.88799 9.219 5.88 9.933 5.166C10.647 4.452 11.613 4.095 12.831 4.095C13.307 4.095 13.839 4.13 14.427 4.2L15.183 4.305V6.888H13.86C13.258 6.888 12.81 7.056 12.516 7.392C12.264 7.672 12.138 8.05 12.138 8.526V10.5H15.057L14.595 13.524H12.138V20.874C13.804 20.608 15.309 19.985 16.653 19.005C17.997 18.025 19.054 16.807 19.824 15.351C20.608 13.839 21 12.222 21 10.5C21 8.59599 20.524 6.83201 19.572 5.208C18.634 3.62599 17.374 2.366 15.792 1.428C14.168 0.475995 12.404 0 10.5 0Z" />
</svg>
